<svg fill="#6b7280" viewBox="0 0 24 24" xmlns="http://www.w3.org/2000/svg">
  <title>Instagram</title>
  <path d="M12.017 0C8.396 0 7.989.016 6.756.072 5.526.127 4.718.302 4.019.57c-.72.28-1.33.653-1.938 1.261C1.473 2.438 1.1 3.048.82 3.768c-.268.699-.443 1.507-.498 2.737C.266 7.738.25 8.145.25 11.766s.016 4.028.072 5.261c.055 1.23.23 2.038.498 2.737.28.72.653 1.33 1.261 1.938.608.608 1.218.981 1.938 1.261.699.268 1.507.443 2.737.498 1.233.056 1.64.072 5.261.072s4.028-.016 5.261-.072c1.23-.055 2.038-.23 2.737-.498.72-.28 1.33-.653 1.938-1.261.608-.608.981-1.218 1.261-1.938.268-.699.443-1.507.498-2.737.056-1.233.072-1.64.072-5.261s-.016-4.028-.072-5.261c-.055-1.23-.23-2.038-.498-2.737-.28-.72-.653-1.33-1.261-1.938C19.562 1.473 18.952 1.1 18.232.82c-.699-.268-1.507-.443-2.737-.498C14.262.266 13.855.25 12.234.25h-.217zm-.086 2.185c.063 0 .133 0 .217 0 3.568 0 3.99.014 5.402.069 1.304.059 2.012.274 2.482.456.624.243 1.069.533 1.537 1.001.468.468.758.913 1.001 1.537.182.47.397 1.178.456 2.482.055 1.412.069 1.834.069 5.402 0 3.568-.014 3.99-.069 5.402-.059 1.304-.274 2.012-.456 2.482-.243.624-.533 1.069-1.001 1.537-.468.468-.913.758-1.537 1.001-.47.182-1.178.397-2.482.456-1.412.055-1.834.069-5.402.069-3.568 0-3.99-.014-5.402-.069-1.304-.059-2.012-.274-2.482-.456-.624-.243-1.069-.533-1.537-1.001-.468-.468-.758-.913-1.001-1.537-.182-.47-.397-1.178-.456-2.482-.055-1.412-.069-1.834-.069-5.402 0-3.568.014-3.99.069-5.402.059-1.304.274-2.012.456-2.482.243-.624.533-1.069 1.001-1.537.468-.468.913-.758 1.537-1.001.47-.182 1.178-.397 2.482-.456 1.236-.056 1.715-.069 4.185-.069zm8.246 2.02c-.886 0-1.604.718-1.604 1.604s.718 1.604 1.604 1.604 1.604-.718 1.604-1.604-.718-1.604-1.604-1.604zm-8.16 2.146c-3.732 0-6.76 3.028-6.76 6.76s3.028 6.76 6.76 6.76 6.76-3.028 6.76-6.76-3.028-6.76-6.76-6.76zm0 2.185c2.526 0 4.575 2.049 4.575 4.575s-2.049 4.575-4.575 4.575-4.575-2.049-4.575-4.575 2.049-4.575 4.575-4.575z" />
</svg>