<?xml version="1.0" encoding="utf-8"?>
<!-- Uploaded to: SVG Repo, www.svgrepo.com, Generator: SVG Repo Mixer Tools -->
<svg width="800px" height="800px" viewBox="0 0 1024 1024" class="icon"  version="1.1" xmlns="http://www.w3.org/2000/svg"><path d="M576 149.333333h-128c-36.266667 0-64 27.733333-64 64v64h42.666667v-64c0-12.8 8.533333-21.333333 21.333333-21.333333h128c12.8 0 21.333333 8.533333 21.333333 21.333333v64h42.666667v-64c0-36.266667-27.733333-64-64-64z" fill="#424242" /><path d="M853.333333 917.333333H170.666667c-46.933333 0-85.333333-38.4-85.333334-85.333333V320c0-46.933333 38.4-85.333333 85.333334-85.333333h682.666666c46.933333 0 85.333333 38.4 85.333334 85.333333v512c0 46.933333-38.4 85.333333-85.333334 85.333333z" fill="#E65100" /><path d="M853.333333 597.333333H170.666667c-46.933333 0-85.333333-38.4-85.333334-85.333333v-192c0-46.933333 38.4-85.333333 85.333334-85.333333h682.666666c46.933333 0 85.333333 38.4 85.333334 85.333333v192c0 46.933333-38.4 85.333333-85.333334 85.333333z" fill="#FF6E40" /><path d="M554.666667 554.666667h-85.333334c-12.8 0-21.333333-8.533333-21.333333-21.333334v-42.666666c0-12.8 8.533333-21.333333 21.333333-21.333334h85.333334c12.8 0 21.333333 8.533333 21.333333 21.333334v42.666666c0 12.8-8.533333 21.333333-21.333333 21.333334z" fill="#FFF3E0" /></svg>