<?xml version="1.0" encoding="iso-8859-1"?>
<!-- Uploaded to: SVG Repo, www.svgrepo.com, Generator: SVG Repo Mixer Tools -->
<svg height="800px" width="800px" version="1.1" id="Layer_1" xmlns="http://www.w3.org/2000/svg" xmlns:xlink="http://www.w3.org/1999/xlink" 
	 viewBox="0 0 512 512" xml:space="preserve">
<g>
	<path style="fill:#A1A1A1;" d="M403.63,101.981c-3.231-3.461-7.754-5.425-12.489-5.425H120.858c-4.734,0-9.257,1.965-12.489,5.425
		c-3.232,3.461-4.882,8.106-4.559,12.83l26.114,381.269c0.614,8.963,8.064,15.92,17.047,15.92h218.054
		c8.985,0,16.433-6.957,17.047-15.92l26.114-381.269C408.513,110.087,406.862,105.44,403.63,101.981z"/>
	<path style="fill:#A1A1A1;" d="M403.879,101.981c-3.231-3.461-7.754-5.425-12.489-5.425H121.107c-4.734,0-9.257,1.965-12.489,5.425
		c-3.232,3.461-4.882,8.106-4.559,12.83l26.114,381.269c0.614,8.963,8.064,15.92,17.047,15.92h218.054
		c8.985,0,16.433-6.957,17.047-15.92l26.114-381.269C408.761,110.087,407.11,105.44,403.879,101.981z"/>
	<path style="fill:#A1A1A1;" d="M133.915,65.593l11.232-56.425C146.209,3.838,150.887,0,156.32,0h199.361
		c5.434,0,10.111,3.838,11.173,9.168l11.232,56.425"/>
</g>
<path style="fill:#D6D6D6;" d="M257.532,96.555H121.107c-4.734,0-9.257,1.965-12.489,5.425c-3.232,3.461-4.882,8.106-4.559,12.83
	l26.114,381.269c0.614,8.963,8.064,15.92,17.047,15.92h110.311V96.555z"/>
<path style="fill:#8E572E;" d="M402.646,199.353H109.602l-5.427-79.364c-0.324-4.723,1.325-9.37,4.551-12.83
	c3.226-3.461,7.742-5.425,12.468-5.425h269.844c4.728,0,9.242,1.965,12.468,5.425c3.226,3.461,4.874,8.106,4.551,12.83
	L402.646,199.353z"/>
<path style="fill:#573024;" d="M332.809,306.826c-2.586-18.475-12.026-36.666-26.582-51.221
	c-14.556-14.556-32.747-23.996-51.221-26.582c-19.966-2.792-38.703,2.892-51.409,15.6c-12.708,12.707-18.393,31.445-15.6,51.409
	c2.586,18.475,12.026,36.666,26.582,51.222c14.556,14.555,32.747,23.995,51.221,26.581c3.338,0.467,6.64,0.697,9.887,0.697
	c16.174,0,30.941-5.714,41.523-16.297C329.918,345.527,335.602,326.79,332.809,306.826z M282.062,279.769
	c11.011,11.012,17.111,24.799,17.322,36.476l-53.791-53.791C257.267,262.667,271.051,268.759,282.062,279.769z M238.743,323.088
	c-9.201-9.202-15.362-20.79-16.902-31.794c-0.182-1.304-0.333-2.885-0.363-4.624l53.686,53.686
	c-1.741-0.031-3.321-0.182-4.627-0.366C259.533,338.449,247.945,332.289,238.743,323.088z"/>
<path style="fill:#83432D;" d="M257.531,336.145c-6.699-2.991-13.187-7.457-18.788-13.057c-9.201-9.202-15.362-20.79-16.902-31.794
	c-0.182-1.304-0.333-2.885-0.363-4.624l36.053,36.053v-48.33l-11.938-11.938c3.812,0.07,7.848,0.777,11.938,2.066v-35.086
	c-0.842-0.147-1.683-0.294-2.527-0.412c-19.966-2.792-38.703,2.892-51.409,15.6c-12.708,12.707-18.393,31.445-15.6,51.409
	c2.586,18.475,12.026,36.666,26.582,51.222c12.376,12.376,27.382,21.035,42.953,24.945V336.145L257.531,336.145z"/>
<path style="fill:#8E572E;" d="M129.926,496.08c0.614,8.963,8.118,15.92,17.295,15.92h218.054c8.985,0,16.433-6.957,17.047-15.92
	l6.478-94.579H123.448L129.926,496.08z"/>
<path style="fill:#AF6A3A;" d="M129.926,496.08c0.614,8.963,8.118,15.92,17.295,15.92h110.311V401.502H123.448L129.926,496.08z"/>
<path style="fill:#573024;" d="M408.117,48.984H103.884c-9.437,0-17.087,7.651-17.087,17.087v52.75
	c0,9.437,7.651,17.087,17.087,17.087h304.232c9.437,0,17.087-7.651,17.087-17.087v-52.75
	C425.205,56.634,417.554,48.984,408.117,48.984z"/>
<path style="fill:#AF6A3A;" d="M257.531,199.353H109.602l-5.427-79.364c-0.324-4.723,1.325-9.37,4.551-12.83
	c3.226-3.461,7.742-5.425,12.468-5.425h136.337V199.353z"/>
<path style="fill:#D6D6D6;" d="M257.531,0H156.32c-5.434,0-10.111,3.838-11.173,9.168l-11.232,56.425h123.616V0z"/>
<path style="fill:#83432D;" d="M257.531,48.984H103.884c-9.437,0-17.087,7.651-17.087,17.087v52.75
	c0,9.437,7.651,17.087,17.087,17.087h153.647L257.531,48.984L257.531,48.984z"/>
</svg>