<?xml version="1.0" encoding="iso-8859-1"?>

<!DOCTYPE svg PUBLIC "-//W3C//DTD SVG 1.1//EN" "http://www.w3.org/Graphics/SVG/1.1/DTD/svg11.dtd">
<!-- Uploaded to: SVG Repo, www.svgrepo.com, Generator: SVG Repo Mixer Tools -->
<svg height="800px" width="800px" version="1.1" id="_x34_" xmlns="http://www.w3.org/2000/svg" xmlns:xlink="http://www.w3.org/1999/xlink" 
	 viewBox="0 0 512 512"  xml:space="preserve">
<g>
	<path style="fill:#727171;" d="M392.823,75.729v140.345c0,2.394-0.113,4.757-0.329,7.087
		c-3.574,38.504-35.985,68.645-75.397,68.645H194.902c-39.409,0-71.825-30.141-75.4-68.645l-0.335-88.878V75.729
		C119.167,33.894,153.098,0,194.902,0h122.196C358.904,0,392.823,33.894,392.823,75.729z"/>
	<path style="fill:#E08E9C;" d="M392.823,134.282v81.792c0,2.394-0.113,4.757-0.329,7.087H119.502l-0.335-88.878H392.823z"/>
	<path style="fill:#595758;" d="M441.791,188.288C371.103,211.602,258.02,209.52,258.02,209.52h-4.04
		c0,0-113.089,2.082-183.776-21.232c-70.676-23.315-94.91,55.597-40.385,91.468C81.657,313.854,200.973,312.753,256,312.039
		c55.027,0.715,174.341,1.816,226.178-32.283C536.706,243.885,512.478,164.973,441.791,188.288z"/>
	<path style="opacity:0.07;fill:#050101;" d="M441.791,188.288c-14.923,4.922-31.73,8.698-48.967,11.615v-65.621V75.729
		C392.823,33.894,358.904,0,317.098,0h-58.828v312.064c55.969,0.712,172.763,1.339,223.909-32.308
		C536.706,243.885,512.478,164.973,441.791,188.288z"/>
</g>
</svg>