<?xml version="1.0" encoding="utf-8"?>
<!-- Uploaded to: SVG Repo, www.svgrepo.com, Generator: SVG Repo Mixer Tools -->
<svg width="800px" height="800px" viewBox="0 0 1024 1024" class="icon"  version="1.1" xmlns="http://www.w3.org/2000/svg"><path d="M256 853.333333V170.666667c0-46.933333 38.4-85.333333 85.333333-85.333334h341.333334c46.933333 0 85.333333 38.4 85.333333 85.333334v682.666666c0 46.933333-38.4 85.333333-85.333333 85.333334H341.333333c-46.933333 0-85.333333-38.4-85.333333-85.333334z" fill="#E38939" /><path d="M682.666667 149.333333H341.333333c-12.8 0-21.333333 8.533333-21.333333 21.333334v618.666666c0 12.8 8.533333 21.333333 21.333333 21.333334h341.333334c12.8 0 21.333333-8.533333 21.333333-21.333334V170.666667c0-12.8-8.533333-21.333333-21.333333-21.333334z" fill="#FFF3E0" /><path d="M512 874.666667m-32 0a32 32 0 1 0 64 0 32 32 0 1 0-64 0Z" fill="#A6642A" /></svg>