<?xml version="1.0" encoding="utf-8"?>
<!-- Uploaded to: SVG Repo, www.svgrepo.com, Generator: SVG Repo Mixer Tools -->
<svg fill="#000000" width="800px" height="800px" viewBox="0 0 32 32" version="1.1" xmlns="http://www.w3.org/2000/svg">
<title>glasses</title>
<path d="M30 14.75h-0.876c-0.595-2.872-3.104-5-6.11-5-2.87 0-5.287 1.94-6.012 4.58l-0.010 0.044c-0.298-0.059-0.641-0.093-0.992-0.093s-0.693 0.034-1.025 0.098l0.034-0.005c-0.735-2.684-3.152-4.624-6.022-4.624-3.006 0-5.515 2.128-6.103 4.959l-0.007 0.040h-0.877c-0.69 0-1.25 0.56-1.25 1.25s0.56 1.25 1.25 1.25v0h0.876c0.595 2.872 3.105 5 6.111 5 3.135 0 5.729-2.314 6.169-5.327l0.004-0.034c0.251-0.081 0.54-0.127 0.84-0.127s0.589 0.046 0.86 0.133l-0.020-0.006c0.443 3.047 3.038 5.361 6.173 5.361 3.006 0 5.515-2.128 6.104-4.96l0.007-0.040h0.876c0.69 0 1.25-0.56 1.25-1.25s-0.56-1.25-1.25-1.25v0zM9 19.75c-2.071 0-3.75-1.679-3.75-3.75s1.679-3.75 3.75-3.75c2.071 0 3.75 1.679 3.75 3.75v0c-0.002 2.070-1.68 3.748-3.75 3.75h-0zM23 19.75c-2.071 0-3.75-1.679-3.75-3.75s1.679-3.75 3.75-3.75c2.071 0 3.75 1.679 3.75 3.75v0c-0.002 2.070-1.68 3.748-3.75 3.75h-0z"></path>
</svg>