<?xml version="1.0" encoding="iso-8859-1"?>
<!-- Uploaded to: SVG Repo, www.svgrepo.com, Generator: SVG Repo Mixer Tools -->
<svg xmlns="http://www.w3.org/2000/svg" xmlns:xlink="http://www.w3.org/1999/xlink" version="1.1" id="Capa_1"  viewBox="0 0 455 455" xml:space="preserve" width="512" height="512">
<g>
	<path style="fill:#FFCC75;" d="M202.5,321.29V430c0,13.81,11.19,25,25,25c13.81,0,25-11.19,25-25V321.29H202.5z"/>
	<path style="fill:#98D9D5;" d="M363.97,19.49L248.25,323.75c1.46-0.73,2.88-1.55,4.25-2.46c3-1.95,5.79-4.28,8.32-6.96   L395.2,172.34c31.59-33.38,52.16-74.77,59.8-119.33C433.82,43.15,402.3,30.14,363.97,19.49z"/>
	<path style="fill:#98D9D5;" d="M91.03,19.49C52.7,30.14,21.18,43.15,0,53.02c7.64,44.55,28.22,85.94,59.81,119.32l134.37,141.98   c2.54,2.68,5.33,5.01,8.32,6.97c1.38,0.9,2.8,1.73,4.26,2.46L91.03,19.49z"/>
	<path style="fill:#C1E8E6;" d="M273,2.27l-38.67,325.92c4.89-0.72,9.57-2.22,13.92-4.44l79.87-164.83   c18.91-39.01,31.24-87.37,35.85-139.43C336.67,11.9,305.92,5.5,273,2.27z"/>
	<path style="fill:#C1E8E6;" d="M182.01,2.27c-32.92,3.23-63.68,9.63-90.98,17.22c4.62,52.06,16.95,100.42,35.85,139.43   c0,0,79.88,164.83,79.88,164.84c4.35,2.21,9.03,3.71,13.92,4.43L182.01,2.27z"/>
	<path style="fill:#98D9D5;" d="M273,2.27c-1.54,55.7-5.65,107.43-11.96,149.17l-26.71,176.75c-2.24,0.33-4.52,0.5-6.83,0.5   s-4.58-0.17-6.82-0.5l-26.72-176.75c-6.31-41.74-10.42-93.47-11.95-149.17C196.78,0.81,211.98,0,227.5,0   C243.03,0,258.23,0.81,273,2.27z"/>
</g>















</svg>