<?xml version="1.0" encoding="utf-8"?>

<!DOCTYPE svg PUBLIC "-//W3C//DTD SVG 1.1//EN" "http://www.w3.org/Graphics/SVG/1.1/DTD/svg11.dtd">
<!-- Uploaded to: SVG Repo, www.svgrepo.com, Generator: SVG Repo Mixer Tools -->
<svg height="800px" width="800px" version="1.1" id="_x32_" xmlns="http://www.w3.org/2000/svg" xmlns:xlink="http://www.w3.org/1999/xlink" 
	 viewBox="0 0 512 512"  xml:space="preserve">
<style type="text/css">
	.st0{fill:#000000;}
</style>
<g>
	<path class="st0" d="M507.44,185.327c-4.029-5.124-10.185-8.112-16.704-8.112c0,0-48.021,0-156.827,0h-65.774H243.87h-65.774
		c-108.806,0-156.827,0-156.827,0c-6.519,0-12.675,2.988-16.714,8.112c-4.028,5.125-5.486,11.815-3.965,18.152
		c0,0,12.421,56.269,19.927,82.534c7.506,26.265,26.265,48.772,86.29,48.772s59.827,0,74.828,0c21.258,0,46.256-19.99,55.028-45.023
		c4.97-14.16,12.756-32.738,19.338-47.876c6.582,15.138,14.368,33.716,19.338,47.876c8.773,25.033,33.77,45.023,55.028,45.023
		c15.001,0,14.803,0,74.828,0s78.784-22.507,86.29-48.772c7.496-26.264,19.918-82.534,19.918-82.534
		C512.935,197.142,511.478,190.452,507.44,185.327z M90.339,278.734C45.314,263.732,40.318,198.7,40.318,198.7s22.507,0,55.028,0
		L90.339,278.734z M340.464,278.734c-45.015-15.001-50.022-80.034-50.022-80.034s22.508,0,55.029,0L340.464,278.734z"/>
</g>
</svg>