<svg width="128" height="128" viewBox="0 0 128 128" fill="none" xmlns="http://www.w3.org/2000/svg">
<g clip-path="url(#clip0_0_309)">
<path d="M57.1183 11.8136L9.51971 31.5412C6.88172 32.6882 6.88172 36.3584 9.51971 37.5054L57.3477 56.5448C61.5914 58.1505 66.1792 58.1505 70.4229 56.5448L118.366 37.5054C121.004 36.3584 121.118 32.6882 118.366 31.5412L70.767 11.8136C66.4086 9.97849 61.4767 9.97849 57.1183 11.8136Z" fill="#FCB400"/>
<path d="M68.2437 66.8674V114.351C68.2437 116.645 70.5376 118.251 72.6022 117.333L126.05 96.6882C127.312 96.2294 128 95.0824 128 93.7061V46.2222C128 43.9283 125.706 42.3226 123.642 43.2401L70.1936 63.8853C68.9319 64.3441 68.2437 65.491 68.2437 66.8674Z" fill="#18BFFF"/>
<path d="M0 46.3369V90.9534C0 93.362 2.75269 94.853 4.8172 93.8208L38.1936 77.7634L39.7993 76.9606L1.03226 44.1577C0.458781 44.7312 0 45.4193 0 46.3369Z" fill="#F82B60"/>
<path d="M55.5125 63.5412L4.7025 43.3548C3.67024 43.0108 2.63799 43.1254 1.83512 43.5842C1.60573 43.6989 1.26164 43.9283 0.917557 44.1577L39.7993 76.9606L55.6272 69.3907C58.2652 68.129 58.0358 64.4588 55.5125 63.5412Z" fill="#BA1E45"/>
</g>
<defs>
<clipPath id="clip0_0_309">
<rect width="128" height="107.125" fill="white" transform="translate(0 10.4373)"/>
</clipPath>
</defs>
</svg>
