<svg width="128" height="128" viewBox="0 0 128 128" fill="none" xmlns="http://www.w3.org/2000/svg">
<mask id="mask0_60_20503" style="mask-type:luminance" maskUnits="userSpaceOnUse" x="0" y="4" width="128" height="120">
<path d="M91.8356 32.7671C91.8356 48.1096 79.3425 60.6027 64 60.6027C48.6575 60.6027 36.1644 48.1096 36.1644 32.7671C36.1644 17.4246 48.6575 4.93149 64 4.93149C79.5616 4.93149 91.8356 17.2055 91.8356 32.7671ZM27.8356 67.3972C12.4931 67.3972 0 79.8904 0 95.2328C0 110.575 12.4931 123.068 27.8356 123.068C43.1781 123.068 55.6712 110.575 55.6712 95.2328C55.6712 79.8904 43.3973 67.3972 27.8356 67.3972ZM100.164 67.3972C84.8219 67.3972 72.3288 79.8904 72.3288 95.2328C72.3288 110.575 84.8219 123.068 100.164 123.068C115.507 123.068 128 110.575 128 95.2328C128 79.8904 115.726 67.3972 100.164 67.3972Z" fill="white"/>
</mask>
<g mask="url(#mask0_60_20503)">
<path d="M64.0003 3.61646C102.795 3.61646 134.137 34.9589 134.137 73.7534C134.137 112.548 102.795 143.89 64.0003 143.89C25.2057 143.89 -6.13672 112.548 -6.13672 73.7534C-5.91754 34.9589 25.4249 3.61646 64.0003 3.61646Z" fill="url(#paint0_radial_60_20503)"/>
</g>
<defs>
<radialGradient id="paint0_radial_60_20503" cx="0" cy="0" r="1" gradientUnits="userSpaceOnUse" gradientTransform="translate(64.0834 73.692) rotate(-90) scale(70.1091)">
<stop stop-color="#FFB900"/>
<stop offset="0.6" stop-color="#F95D8F"/>
<stop offset="0.9991" stop-color="#F95353"/>
</radialGradient>
</defs>
</svg>
