<svg width="128" height="128" viewBox="0 0 128 128" fill="none" xmlns="http://www.w3.org/2000/svg">
<g clip-path="url(#clip0_0_445)">
<mask id="mask0_0_445" style="mask-type:luminance" maskUnits="userSpaceOnUse" x="0" y="14" width="128" height="100">
<path d="M128 14.4225H0V113.577H128V14.4225Z" fill="white"/>
</mask>
<g mask="url(#mask0_0_445)">
<path d="M108.357 23.2524C100.199 19.509 91.4506 16.7511 82.3035 15.1715C82.1369 15.141 81.9705 15.2172 81.8847 15.3695C80.7595 17.3707 79.5132 19.9813 78.6405 22.0333C68.8022 20.5604 59.0143 20.5604 49.3777 22.0333C48.5048 19.9357 47.2133 17.3707 46.0831 15.3695C45.9972 15.2223 45.8308 15.1461 45.6643 15.1715C36.5222 16.746 27.7737 19.504 19.6103 23.2524C19.5396 23.2828 19.4791 23.3337 19.4389 23.3997C2.84476 48.1909 -1.70107 72.3728 0.528961 96.2549C0.539051 96.3717 0.604639 96.4835 0.695456 96.5546C11.6438 104.595 22.2491 109.476 32.6575 112.711C32.8241 112.762 33.0006 112.701 33.1066 112.564C35.5687 109.202 37.7634 105.656 39.6452 101.928C39.7563 101.71 39.6503 101.451 39.4233 101.364C35.942 100.044 32.6272 98.4338 29.4386 96.6054C29.1863 96.4581 29.1662 96.0974 29.3982 95.9246C30.0692 95.4218 30.7404 94.8987 31.3811 94.3704C31.497 94.274 31.6585 94.2536 31.7948 94.3146C52.7429 103.879 75.4216 103.879 96.1224 94.3146C96.2587 94.2486 96.4202 94.2689 96.5412 94.3654C97.1821 94.8936 97.8531 95.4218 98.5292 95.9246C98.7612 96.0974 98.746 96.4581 98.4938 96.6054C95.3052 98.4693 91.9903 100.044 88.5041 101.359C88.2771 101.446 88.1761 101.71 88.2872 101.928C90.2094 105.651 92.4041 109.196 94.8208 112.559C94.9217 112.701 95.1033 112.762 95.2699 112.711C105.729 109.476 116.334 104.595 127.282 96.5546C127.378 96.4835 127.439 96.3768 127.449 96.26C130.118 68.6497 122.979 44.6661 108.524 23.4047C108.488 23.3337 108.428 23.2828 108.357 23.2524ZM42.7735 81.7132C36.4667 81.7132 31.27 75.9231 31.27 68.8123C31.27 61.7014 36.3659 55.9113 42.7735 55.9113C49.2313 55.9113 54.3776 61.7523 54.2767 68.8123C54.2767 75.9231 49.1808 81.7132 42.7735 81.7132ZM85.3053 81.7132C78.9987 81.7132 73.8021 75.9231 73.8021 68.8123C73.8021 61.7014 78.8978 55.9113 85.3053 55.9113C91.7634 55.9113 96.9095 61.7523 96.8087 68.8123C96.8087 75.9231 91.7634 81.7132 85.3053 81.7132Z" fill="#5865F2"/>
</g>
</g>
<defs>
<clipPath id="clip0_0_445">
<rect width="128" height="99.1549" fill="white" transform="translate(0 14.4225)"/>
</clipPath>
</defs>
</svg>
