<svg width="128" height="128" viewBox="0 0 128 128" fill="none" xmlns="http://www.w3.org/2000/svg">
<g clip-path="url(#clip0_0_460)">
<path d="M64 64C64 52.3381 73.4539 42.8839 85.1161 42.8839C96.7781 42.8839 106.232 52.3381 106.232 64C106.232 75.6622 96.7781 85.1161 85.1161 85.1161C73.4539 85.1161 64 75.6622 64 64Z" fill="#1ABCFE"/>
<path d="M21.7681 106.232C21.7681 94.5704 31.2221 85.1161 42.8842 85.1161H64.0004V106.232C64.0004 117.895 54.5464 127.348 42.8842 127.348C31.2221 127.348 21.7681 117.895 21.7681 106.232Z" fill="#0ACF83"/>
<path d="M64 0.651688V42.8838H85.1161C96.7784 42.8838 106.232 33.4299 106.232 21.7678C106.232 10.1057 96.7784 0.651688 85.1161 0.651688H64Z" fill="#FF7262"/>
<path d="M21.7681 21.7678C21.7681 33.4299 31.2221 42.8838 42.8842 42.8838H64.0004V0.651672H42.8842C31.2221 0.651672 21.7681 10.1057 21.7681 21.7678Z" fill="#F24E1E"/>
<path d="M21.7681 64C21.7681 75.6622 31.2221 85.1161 42.8842 85.1161H64.0004V42.8839H42.8842C31.2221 42.8839 21.7681 52.3381 21.7681 64Z" fill="#A259FF"/>
</g>
<defs>
<clipPath id="clip0_0_460">
<rect width="85.3333" height="128" fill="white" transform="translate(21.3335)"/>
</clipPath>
</defs>
</svg>
