<svg width="128" height="128" viewBox="0 0 128 128" fill="none" xmlns="http://www.w3.org/2000/svg">
<g clip-path="url(#clip0_0_48)">
<path fill-rule="evenodd" clip-rule="evenodd" d="M63.8093 1.30612C28.5244 1.30612 0 30.0408 0 65.5895C0 94.0055 18.2766 118.059 43.631 126.572C46.801 127.212 47.9621 125.189 47.9621 123.487C47.9621 121.997 47.8576 116.889 47.8576 111.566C30.1074 115.399 26.4111 103.903 26.4111 103.903C23.5585 96.4532 19.3319 94.5384 19.3319 94.5384C13.5223 90.6005 19.7551 90.6005 19.7551 90.6005C26.1995 91.0263 29.5811 97.199 29.5811 97.199C35.2849 106.99 44.4761 104.223 48.1737 102.52C48.7014 98.3693 50.3928 95.4958 52.1887 93.8997C38.0317 92.4095 23.1367 86.8754 23.1367 62.1832C23.1367 55.1589 25.6705 49.4119 29.6856 44.9424C29.0521 43.3463 26.833 36.7464 30.3203 27.9131C30.3203 27.9131 35.7081 26.21 47.8563 34.5117C53.0574 33.1045 58.4212 32.3887 63.8093 32.3827C69.1971 32.3827 74.6893 33.1285 79.761 34.5117C91.9105 26.21 97.2983 27.9131 97.2983 27.9131C100.786 36.7464 98.5652 43.3463 97.9318 44.9424C102.053 49.4119 104.482 55.1589 104.482 62.1832C104.482 86.8754 89.5869 92.3024 75.3241 93.8997C77.649 95.9216 79.6552 99.7525 79.6552 105.819C79.6552 114.44 79.5507 121.358 79.5507 123.486C79.5507 125.189 80.7132 127.212 83.8818 126.574C109.236 118.058 127.513 94.0055 127.513 65.5895C127.617 30.0408 98.9884 1.30612 63.8093 1.30612Z" fill="#24292F"/>
</g>
<defs>
<clipPath id="clip0_0_48">
<rect width="128" height="125.388" fill="white" transform="translate(0 1.30612)"/>
</clipPath>
</defs>
</svg>
