<svg width="128" height="128" viewBox="0 0 128 128" fill="none" xmlns="http://www.w3.org/2000/svg">
<g clip-path="url(#clip0_0_64)">
<g clip-path="url(#clip1_0_64)">
<path d="M97.6844 30.3155L67.3689 26.9472L30.3161 30.3155L26.9471 64L30.3155 97.6845L63.9999 101.895L97.6844 97.6845L101.053 63.1584L97.6844 30.3155Z" fill="white"/>
<path d="M44.135 82.5766C41.6173 80.8755 39.8739 78.3917 38.9222 75.1072L44.7667 72.6989C45.2973 74.72 46.2234 76.2861 47.5456 77.3978C48.8595 78.5094 50.4595 79.0566 52.329 79.0566C54.2406 79.0566 55.8829 78.4755 57.255 77.3133C58.6272 76.151 59.3184 74.6688 59.3184 72.8755C59.3184 71.04 58.5939 69.5405 57.1456 68.3789C55.6973 67.2173 53.8784 66.6355 51.7056 66.6355H48.329V60.8506H51.36C53.2294 60.8506 54.8045 60.3456 56.0845 59.335C57.3645 58.3245 58.0045 56.9434 58.0045 55.1834C58.0045 53.6173 57.4317 52.3706 56.2867 51.4362C55.1418 50.5018 53.6928 50.0301 51.9328 50.0301C50.215 50.0301 48.8506 50.4851 47.84 51.4029C46.8294 52.3206 46.0966 53.449 45.6339 54.7795L39.849 52.3712C40.615 50.1984 42.0218 48.2784 44.0845 46.6195C46.1478 44.9606 48.7834 44.1267 51.9834 44.1267C54.3494 44.1267 56.48 44.5818 58.3667 45.4995C60.2528 46.4173 61.735 47.689 62.8045 49.3056C63.8739 50.9306 64.4045 52.7501 64.4045 54.7706C64.4045 56.8339 63.9078 58.5766 62.9139 60.0083C61.92 61.44 60.6989 62.5344 59.2506 63.3011V63.6461C61.1622 64.4461 62.72 65.6672 63.9494 67.3094C65.1706 68.9517 65.785 70.9139 65.785 73.2045C65.785 75.495 65.2038 77.5411 64.0416 79.335C62.8794 81.129 61.271 82.5434 59.2333 83.5706C57.1872 84.5978 54.8883 85.12 52.3366 85.12C49.3811 85.1283 46.6528 84.2778 44.135 82.5766Z" fill="#1A73E8"/>
<path d="M80 53.575L73.6166 58.215L70.4083 53.3478L81.92 45.0445H86.3328V84.2106H80V53.575Z" fill="#1A73E8"/>
<path d="M97.6844 128L128 97.6845L112.842 90.9478L97.6844 97.6845L90.9478 112.842L97.6844 128Z" fill="#EA4335"/>
<path d="M23.5789 112.842L30.3155 128H97.6838V97.6845H30.3155L23.5789 112.842Z" fill="#34A853"/>
<path d="M10.105 0C4.52224 0 0 4.52224 0 10.105V97.6838L15.1578 104.42L30.3155 97.6838V30.3155H97.6838L104.42 15.1578L97.6845 0H10.105Z" fill="#4285F4"/>
<path d="M0 97.6845V117.895C0 123.478 4.52224 128 10.105 128H30.3155V97.6845H0Z" fill="#188038"/>
<path d="M97.6844 30.3155V97.6838H128V30.3155L112.842 23.5789L97.6844 30.3155Z" fill="#FBBC04"/>
<path d="M128 30.3155V10.105C128 4.5216 123.478 0 117.895 0H97.6844V30.3155H128Z" fill="#1967D2"/>
</g>
</g>
<defs>
<clipPath id="clip0_0_64">
<rect width="128" height="128" fill="white"/>
</clipPath>
<clipPath id="clip1_0_64">
<rect width="128" height="128" fill="white"/>
</clipPath>
</defs>
</svg>
