<svg width="128" height="128" viewBox="0 0 128 128" fill="none" xmlns="http://www.w3.org/2000/svg">
<g clip-path="url(#clip0_0_185)">
<g clip-path="url(#clip1_0_185)">
<path d="M9.32688 104.834L14.9718 114.584C16.1447 116.637 17.8309 118.25 19.8103 119.423L39.9706 84.5269H-0.350098C-0.350098 86.7995 0.236386 89.0722 1.40935 91.1249L9.32688 104.834Z" fill="#0066DA"/>
<path d="M63.6499 43.4731L43.4895 8.57732C41.5102 9.75029 39.824 11.3631 38.651 13.4158L1.40935 77.929C0.257958 79.9374 -0.348565 82.2119 -0.350098 84.5269H39.9706L63.6499 43.4731Z" fill="#00AC47"/>
<path d="M107.489 119.423C109.469 118.25 111.155 116.637 112.328 114.584L114.674 110.552L125.89 91.1249C127.063 89.0722 127.65 86.7995 127.65 84.5269H87.3262L95.9064 101.388L107.489 119.423Z" fill="#EA4335"/>
<path d="M63.6496 43.4731L83.81 8.57732C81.8306 7.40435 79.558 6.81787 77.2121 6.81787H50.0872C47.7413 6.81787 45.4686 7.47767 43.4893 8.57732L63.6496 43.4731Z" fill="#00832D"/>
<path d="M87.3294 84.5269H39.9709L19.8105 119.423C21.7899 120.596 24.0626 121.182 26.4085 121.182H100.892C103.238 121.182 105.51 120.522 107.49 119.423L87.3294 84.5269Z" fill="#2684FC"/>
<path d="M107.27 45.6724L88.6488 13.4158C87.4758 11.3631 85.7896 9.75029 83.8103 8.57732L63.6499 43.4731L87.3292 84.5269H127.577C127.577 82.2543 126.99 79.9817 125.817 77.929L107.27 45.6724Z" fill="#FFBA00"/>
</g>
</g>
<defs>
<clipPath id="clip0_0_185">
<rect width="128" height="128" fill="white"/>
</clipPath>
<clipPath id="clip1_0_185">
<rect width="128" height="114.364" fill="white" transform="translate(-0.350098 6.81787)"/>
</clipPath>
</defs>
</svg>
