<svg width="128" height="128" viewBox="0 0 128 128" fill="none" xmlns="http://www.w3.org/2000/svg">
<g clip-path="url(#clip0_0_93)">
<path d="M78.091 0L110.091 32L94.091 34.9091L78.091 32L75.1819 16L78.091 0Z" fill="#188038"/>
<path d="M78.0909 32V0H25.7273C20.9055 0 17 3.90545 17 8.72727V119.273C17 124.095 20.9055 128 25.7273 128H101.364C106.185 128 110.091 124.095 110.091 119.273V32H78.0909Z" fill="#34A853"/>
<path d="M34.4546 49.4545V91.6364H92.6364V49.4545H34.4546ZM59.9091 84.3636H41.7273V74.1818H59.9091V84.3636ZM59.9091 66.9091H41.7273V56.7273H59.9091V66.9091ZM85.3637 84.3636H67.1819V74.1818H85.3637V84.3636ZM85.3637 66.9091H67.1819V56.7273H85.3637V66.9091Z" fill="white"/>
</g>
<defs>
<clipPath id="clip0_0_93">
<rect width="93.0909" height="128" fill="white" transform="translate(17)"/>
</clipPath>
</defs>
</svg>
