<svg width="128" height="128" viewBox="0 0 128 128" fill="none" xmlns="http://www.w3.org/2000/svg">
<g clip-path="url(#clip0_0_290)">
<path fill-rule="evenodd" clip-rule="evenodd" d="M91.9507 92.2383C82.3899 92.2383 74.6396 84.5684 74.6396 75.1086C74.6396 65.6471 82.3899 57.9772 91.9507 57.9772C101.512 57.9772 109.262 65.6471 109.262 75.1086C109.262 84.5684 101.512 92.2383 91.9507 92.2383ZM97.1331 42.1281V26.8887C101.153 25.0099 103.968 20.986 103.968 16.316V15.9643C103.968 9.51905 98.6396 4.24585 92.1268 4.24585H91.773C85.2601 4.24585 79.9316 9.51905 79.9316 15.9643V16.316C79.9316 20.986 82.747 25.0115 86.7667 26.8904V42.1281C80.782 43.0436 75.314 45.4863 70.8043 49.0812L28.5231 16.533C28.8021 15.4728 28.9981 14.3813 28.9998 13.234C29.0064 5.93565 23.0367 0.00987115 15.6585 8.56279e-06C8.28359 -0.00821026 2.29396 5.90113 2.28565 13.2011C2.27735 20.501 8.24705 26.4268 15.6253 26.435C18.0288 26.4383 20.2545 25.7627 22.2046 24.6647L63.7948 56.6836C60.2585 61.9667 58.1855 68.2952 58.1855 75.1086C58.1855 82.2409 60.4628 88.8389 64.3097 94.265L51.6627 106.782C50.6628 106.485 49.6263 106.278 48.5267 106.278C42.4657 106.278 37.5507 111.14 37.5507 117.138C37.5507 123.138 42.4657 128 48.5267 128C54.5894 128 59.5027 123.138 59.5027 117.138C59.5027 116.053 59.2934 115.026 58.9928 114.036L71.5036 101.655C77.1826 105.944 84.2552 108.521 91.9507 108.521C110.599 108.521 125.714 93.5615 125.714 75.1086C125.714 58.403 113.313 44.6019 97.1331 42.1281Z" fill="#FF7A59"/>
</g>
<defs>
<clipPath id="clip0_0_290">
<rect width="123.429" height="128" fill="white" transform="translate(2.28564)"/>
</clipPath>
</defs>
</svg>
