<svg width="128" height="128" viewBox="0 0 128 128" fill="none" xmlns="http://www.w3.org/2000/svg">
<g clip-path="url(#clip0_0_328)">
<path d="M44.5144 60.3244C43.0588 58.7232 40.8756 58.8688 39.8565 60.7612L16.275 107.924C15.4016 109.816 16.7117 112 18.7496 112H51.5016C52.5208 112 53.5396 111.418 53.9764 110.399C61.1088 95.8424 56.8876 73.5708 44.5144 60.3244Z" fill="url(#paint0_linear_0_328)"/>
<path d="M61.6932 17.5284C48.5924 38.3442 49.466 61.4892 58.054 78.8112C66.788 96.1336 73.3384 109.525 73.9208 110.399C74.3576 111.418 75.3764 112 76.3952 112H109.148C111.185 112 112.641 109.816 111.622 107.924C111.622 107.924 67.516 19.7119 66.3512 17.5284C65.478 15.4905 63.0032 15.4905 61.6932 17.5284Z" fill="#2684FF"/>
</g>
<defs>
<linearGradient id="paint0_linear_0_328" x1="57.3824" y1="67.62" x2="32.53" y2="110.666" gradientUnits="userSpaceOnUse">
<stop stop-color="#0052CC"/>
<stop offset="0.9228" stop-color="#2684FF"/>
</linearGradient>
<clipPath id="clip0_0_328">
<rect width="128" height="128" fill="white"/>
</clipPath>
</defs>
</svg>
