<svg width="128" height="128" viewBox="0 0 128 128" fill="none" xmlns="http://www.w3.org/2000/svg">
<g clip-path="url(#clip0_0_298)">
<g clip-path="url(#clip1_0_298)">
<path d="M1.56852 78.7492C1.28372 77.5351 2.7301 76.7704 3.61189 77.6522L50.3478 124.388C51.2296 125.27 50.4649 126.716 49.2508 126.431C25.6659 120.899 7.10117 102.334 1.56852 78.7492ZM0.00242092 60.018C-0.0201631 60.3806 0.116177 60.7347 0.373073 60.9916L67.0084 127.627C67.2653 127.884 67.6193 128.02 67.9819 127.998C71.0145 127.809 73.99 127.409 76.8938 126.812C77.8724 126.611 78.2123 125.409 77.5059 124.703L3.29722 50.4941C2.59084 49.7876 1.38852 50.1276 1.18755 51.1062C0.591182 54.01 0.191304 56.9854 0.00242092 60.018ZM5.38999 38.0229C5.17688 38.5014 5.28543 39.0605 5.65578 39.4309L88.5691 122.344C88.9395 122.715 89.4986 122.823 89.9771 122.61C92.2633 121.592 94.479 120.443 96.6145 119.174C97.3212 118.755 97.4303 117.784 96.849 117.202L10.7976 31.151C10.2164 30.5697 9.24538 30.6788 8.8255 31.3855C7.55661 33.521 6.40831 35.7367 5.38999 38.0229ZM16.2031 23.1347C15.7294 22.661 15.7001 21.9012 16.1464 21.4015C27.8778 8.26791 44.9426 0 63.9384 0C99.3187 0 128 28.6813 128 64.0615C128 83.0574 119.732 100.122 106.599 111.854C106.099 112.3 105.339 112.271 104.865 111.797L16.2031 23.1347Z" fill="#222326"/>
</g>
</g>
<defs>
<clipPath id="clip0_0_298">
<rect width="128" height="128" fill="white"/>
</clipPath>
<clipPath id="clip1_0_298">
<rect width="128" height="128" fill="white"/>
</clipPath>
</defs>
</svg>
