<svg width="128" height="128" viewBox="0 0 128 128" fill="none" xmlns="http://www.w3.org/2000/svg">
<g clip-path="url(#clip0_0_82)">
<path d="M10.5303 5.52077L81.278 0.204473C89.8658 -0.613419 92.115 0 97.6358 3.88498L120.332 19.8339C124.013 22.492 125.24 23.3099 125.24 26.377V113.687C125.24 119.208 123.195 122.479 116.243 122.888L34.0447 127.796C28.7284 128 26.2748 127.387 23.6166 123.911L7.05431 102.441C3.98721 98.3514 2.76038 95.4888 2.76038 92.0128V14.3131C2.76038 9.8147 4.8051 5.92971 10.5303 5.52077Z" fill="white"/>
<path fill-rule="evenodd" clip-rule="evenodd" d="M81.278 0.204473L10.5303 5.52077C4.8051 5.92971 2.76038 9.8147 2.76038 14.3131V92.0128C2.76038 95.4888 3.98721 98.5559 7.05431 102.441L23.6166 124.115C26.2748 127.591 28.9329 128.409 34.0447 128L116.243 123.093C123.195 122.684 125.24 119.412 125.24 113.891V26.377C125.24 23.5144 124.217 22.6965 120.741 20.2428C120.537 20.0383 120.332 20.0383 120.128 19.8339L97.6358 4.08946C92.3195 1.19209e-07 90.0703 -0.408946 81.278 0.204473ZM35.885 24.9457C29.1374 25.3546 27.7061 25.5591 23.8211 22.2875L14.2109 14.722C13.1885 13.6997 13.5974 12.4728 16.2556 12.2684L84.345 7.36102C90.0703 6.95208 92.9329 8.79233 95.1821 10.6326L106.837 19.016C107.45 19.2204 108.677 20.6518 107.042 20.6518L36.7029 24.9457H35.885ZM28.115 113.073V38.8498C28.115 35.5783 29.1374 34.147 32 33.9425L112.767 29.2396C115.425 29.0351 116.652 30.6709 116.652 33.9425V107.553C116.652 110.824 116.038 113.482 111.744 113.687L34.4537 118.185C30.1597 118.594 28.115 116.958 28.115 113.073ZM104.383 42.9393C104.792 45.1885 104.383 47.4377 102.134 47.6422L98.4537 48.4601V103.259C95.1821 105.099 92.3195 105.917 89.8658 105.917C85.9808 105.917 84.9585 104.69 81.8914 101.01L57.3546 62.5687V99.5783L65.1246 101.419C65.1246 101.419 65.1246 105.917 58.9904 105.917L41.8147 106.939C41.4057 105.917 41.8147 103.463 43.4505 103.054L47.9489 101.827V52.754L41.8147 52.1406C41.4057 49.8914 42.6326 46.6198 46.1086 46.4153L64.5112 45.1885L89.8658 84.0383V49.6869L83.3227 48.869C82.9137 46.2109 84.754 44.1661 87.2077 43.9617L104.383 42.9393Z" fill="black"/>
</g>
<defs>
<clipPath id="clip0_0_82">
<rect width="122.479" height="128" fill="white" transform="translate(2.76038)"/>
</clipPath>
</defs>
</svg>
