<svg width="128" height="128" viewBox="0 0 128 128" fill="none" xmlns="http://www.w3.org/2000/svg">
<g clip-path="url(#clip0_0_512)">
<g clip-path="url(#clip1_0_512)">
<path d="M64 0C28.65 0 0 28.65 0 64C0 81.7 7.15 97.7 18.75 109.25L6.55 121.45C4.15 123.85 5.85 128 9.25 128H64C99.35 128 128 99.35 128 64C128 28.65 99.35 0 64 0Z" fill="#FF4500"/>
<path d="M100.3 76.8C108.557 76.8 115.25 70.1066 115.25 61.85C115.25 53.5933 108.557 46.9 100.3 46.9C92.0434 46.9 85.3501 53.5933 85.3501 61.85C85.3501 70.1066 92.0434 76.8 100.3 76.8Z" fill="url(#paint0_radial_0_512)"/>
<path d="M27.7 76.8C35.9567 76.8 42.65 70.1066 42.65 61.85C42.65 53.5933 35.9567 46.9 27.7 46.9C19.4433 46.9 12.75 53.5933 12.75 61.85C12.75 70.1066 19.4433 76.8 27.7 76.8Z" fill="url(#paint1_radial_0_512)"/>
<path d="M64.0499 106.65C87.6049 106.65 106.7 92.3231 106.7 74.65C106.7 56.9769 87.6049 42.65 64.0499 42.65C40.495 42.65 21.3999 56.9769 21.3999 74.65C21.3999 92.3231 40.495 106.65 64.0499 106.65Z" fill="url(#paint2_radial_0_512)"/>
<path d="M51.4002 71.55C51.1502 76.95 47.5502 78.95 43.3502 78.95C39.1502 78.95 35.9502 76.15 36.2002 70.75C36.4502 65.35 40.0502 61.75 44.2502 61.75C48.4502 61.75 51.6502 66.15 51.4002 71.55Z" fill="#842123"/>
<path d="M91.8001 70.75C92.0501 76.15 88.8501 78.95 84.6501 78.95C80.4501 78.95 76.8501 77 76.6001 71.55C76.3501 66.15 79.5501 61.75 83.7501 61.75C87.9501 61.75 91.5501 65.3 91.8001 70.75Z" fill="#842123"/>
<path d="M76.6501 72.05C76.9001 77.1 80.2501 78.95 84.1501 78.95C88.0501 78.95 91.0501 76.2 90.8501 71.1C90.6001 66.05 87.2501 62.7 83.3501 62.7C79.4501 62.7 76.4001 66.95 76.6501 72.05Z" fill="url(#paint3_radial_0_512)"/>
<path d="M51.3999 72.05C51.1499 77.1 47.7999 78.95 43.8999 78.95C39.9999 78.95 36.9999 76.2 37.2499 71.1C37.4999 66.05 40.8499 62.7 44.7499 62.7C48.6499 62.7 51.6499 66.95 51.3999 72.05Z" fill="url(#paint4_radial_0_512)"/>
<path d="M64.0501 82.55C58.7501 82.55 53.7001 82.8 49.0001 83.25C48.2001 83.35 47.7001 84.15 48.0001 84.85C50.6001 91 56.8001 95.35 64.0501 95.35C71.3001 95.35 77.4501 91.05 80.1001 84.85C80.4001 84.1 79.9001 83.3 79.1001 83.25C74.4001 82.8 69.3501 82.55 64.0501 82.55Z" fill="#BBCFDA"/>
<path d="M64.0499 83.75C58.7499 83.75 53.6999 84 49.0499 84.5C48.2499 84.6 47.7499 85.4 48.0499 86.15C50.6499 92.4 56.8499 96.8 64.0499 96.8C71.2499 96.8 77.4499 92.4 80.0499 86.15C80.3499 85.4 79.8499 84.6 79.0499 84.5C74.3499 84 69.2999 83.75 64.0499 83.75Z" fill="white"/>
<path d="M64.0499 83.1C58.8499 83.1 53.8999 83.35 49.2999 83.8C48.4999 83.9 47.9999 84.7 48.2999 85.4C50.8999 91.55 56.9499 95.9 64.0499 95.9C71.1499 95.9 77.1999 91.6 79.7999 85.4C80.0999 84.65 79.5999 83.85 78.7999 83.8C74.1999 83.4 69.2499 83.1 64.0499 83.1Z" fill="url(#paint5_radial_0_512)"/>
<path d="M87.3998 38.35C93.254 38.35 97.9998 33.6042 97.9998 27.75C97.9998 21.8958 93.254 17.15 87.3998 17.15C81.5456 17.15 76.7998 21.8958 76.7998 27.75C76.7998 33.6042 81.5456 38.35 87.3998 38.35Z" fill="url(#paint6_radial_0_512)"/>
<path d="M63.9001 44C62.6501 44 61.6001 43.45 61.6001 42.65C61.6001 33.15 69.3001 25.45 78.8001 25.45C80.0501 25.45 81.1001 26.5 81.1001 27.75C81.1001 29 80.0501 30.05 78.8001 30.05C71.8501 30.05 66.2001 35.7 66.2001 42.65C66.2001 43.5 65.1501 44 63.9001 44Z" fill="url(#paint7_radial_0_512)"/>
<path d="M48.6501 74.55C48.6501 76.5 46.5501 77.4 44.0001 77.4C41.4501 77.4 39.3501 76.5 39.3501 74.55C39.3501 72.6 41.4501 71 44.0001 71C46.5501 71 48.6501 72.55 48.6501 74.55Z" fill="#FF6101"/>
<path d="M88.7502 74.55C88.7502 76.5 86.6502 77.4 84.1002 77.4C81.5502 77.4 79.4502 76.5 79.4502 74.55C79.4502 72.6 81.5502 71 84.1002 71C86.6502 71 88.7502 72.55 88.7502 74.55Z" fill="#FF6101"/>
<path d="M47.1998 69.2C48.1111 69.2 48.8498 68.3941 48.8498 67.4C48.8498 66.4059 48.1111 65.6 47.1998 65.6C46.2885 65.6 45.5498 66.4059 45.5498 67.4C45.5498 68.3941 46.2885 69.2 47.1998 69.2Z" fill="#FFC49C"/>
<path d="M86.65 69.2C87.5613 69.2 88.3 68.3941 88.3 67.4C88.3 66.4059 87.5613 65.6 86.65 65.6C85.7387 65.6 85 66.4059 85 67.4C85 68.3941 85.7387 69.2 86.65 69.2Z" fill="#FFC49C"/>
</g>
</g>
<defs>
<radialGradient id="paint0_radial_0_512" cx="0" cy="0" r="1" gradientUnits="userSpaceOnUse" gradientTransform="translate(100.506 53.7787) scale(29.9508 26.1273)">
<stop stop-color="#FEFFFF"/>
<stop offset="0.4" stop-color="#FEFFFF"/>
<stop offset="0.51" stop-color="#F9FCFC"/>
<stop offset="0.62" stop-color="#EDF3F5"/>
<stop offset="0.7" stop-color="#DEE9EC"/>
<stop offset="0.72" stop-color="#D8E4E8"/>
<stop offset="0.76" stop-color="#CCD8DF"/>
<stop offset="0.8" stop-color="#C8D5DD"/>
<stop offset="0.83" stop-color="#CCD6DE"/>
<stop offset="0.85" stop-color="#D8DBE2"/>
<stop offset="0.88" stop-color="#EDE3E9"/>
<stop offset="0.9" stop-color="#FFEBEF"/>
</radialGradient>
<radialGradient id="paint1_radial_0_512" cx="0" cy="0" r="1" gradientUnits="userSpaceOnUse" gradientTransform="translate(27.9459 53.7787) scale(29.9508 26.1273)">
<stop stop-color="#FEFFFF"/>
<stop offset="0.4" stop-color="#FEFFFF"/>
<stop offset="0.51" stop-color="#F9FCFC"/>
<stop offset="0.62" stop-color="#EDF3F5"/>
<stop offset="0.7" stop-color="#DEE9EC"/>
<stop offset="0.72" stop-color="#D8E4E8"/>
<stop offset="0.76" stop-color="#CCD8DF"/>
<stop offset="0.8" stop-color="#C8D5DD"/>
<stop offset="0.83" stop-color="#CCD6DE"/>
<stop offset="0.85" stop-color="#D8DBE2"/>
<stop offset="0.88" stop-color="#EDE3E9"/>
<stop offset="0.9" stop-color="#FFEBEF"/>
</radialGradient>
<radialGradient id="paint2_radial_0_512" cx="0" cy="0" r="1" gradientUnits="userSpaceOnUse" gradientTransform="translate(65.1735 49.5879) scale(90.3434 63.4326)">
<stop stop-color="#FEFFFF"/>
<stop offset="0.4" stop-color="#FEFFFF"/>
<stop offset="0.51" stop-color="#F9FCFC"/>
<stop offset="0.62" stop-color="#EDF3F5"/>
<stop offset="0.7" stop-color="#DEE9EC"/>
<stop offset="0.72" stop-color="#D8E4E8"/>
<stop offset="0.76" stop-color="#CCD8DF"/>
<stop offset="0.8" stop-color="#C8D5DD"/>
<stop offset="0.83" stop-color="#CCD6DE"/>
<stop offset="0.85" stop-color="#D8DBE2"/>
<stop offset="0.88" stop-color="#EDE3E9"/>
<stop offset="0.9" stop-color="#FFEBEF"/>
</radialGradient>
<radialGradient id="paint3_radial_0_512" cx="0" cy="0" r="1" gradientUnits="userSpaceOnUse" gradientTransform="translate(82.64 75.4857) rotate(180) scale(7.5482 11.0814)">
<stop stop-color="#FF6600"/>
<stop offset="0.5" stop-color="#FF4500"/>
<stop offset="0.7" stop-color="#FC4301"/>
<stop offset="0.82" stop-color="#F43F07"/>
<stop offset="0.92" stop-color="#E53812"/>
<stop offset="1" stop-color="#D4301F"/>
</radialGradient>
<radialGradient id="paint4_radial_0_512" cx="0" cy="0" r="1" gradientUnits="userSpaceOnUse" gradientTransform="translate(45.0952 75.4857) scale(7.5482 11.0814)">
<stop stop-color="#FF6600"/>
<stop offset="0.5" stop-color="#FF4500"/>
<stop offset="0.7" stop-color="#FC4301"/>
<stop offset="0.82" stop-color="#F43F07"/>
<stop offset="0.92" stop-color="#E53812"/>
<stop offset="1" stop-color="#D4301F"/>
</radialGradient>
<radialGradient id="paint5_radial_0_512" cx="0" cy="0" r="1" gradientUnits="userSpaceOnUse" gradientTransform="translate(64.1842 97.4538) scale(26.6161 17.5553)">
<stop stop-color="#172E35"/>
<stop offset="0.29" stop-color="#0E1C21"/>
<stop offset="0.73" stop-color="#030708"/>
<stop offset="1"/>
</radialGradient>
<radialGradient id="paint6_radial_0_512" cx="0" cy="0" r="1" gradientUnits="userSpaceOnUse" gradientTransform="translate(87.6559 17.053) scale(23.3637 23.3637)">
<stop stop-color="#FEFFFF"/>
<stop offset="0.4" stop-color="#FEFFFF"/>
<stop offset="0.51" stop-color="#F9FCFC"/>
<stop offset="0.62" stop-color="#EDF3F5"/>
<stop offset="0.7" stop-color="#DEE9EC"/>
<stop offset="0.72" stop-color="#D8E4E8"/>
<stop offset="0.76" stop-color="#CCD8DF"/>
<stop offset="0.8" stop-color="#C8D5DD"/>
<stop offset="0.83" stop-color="#CCD6DE"/>
<stop offset="0.85" stop-color="#D8DBE2"/>
<stop offset="0.88" stop-color="#EDE3E9"/>
<stop offset="0.9" stop-color="#FFEBEF"/>
</radialGradient>
<radialGradient id="paint7_radial_0_512" cx="0" cy="0" r="1" gradientUnits="userSpaceOnUse" gradientTransform="translate(77.9201 42.523) scale(19.1501)">
<stop offset="0.48" stop-color="#7A9299"/>
<stop offset="0.67" stop-color="#172E35"/>
<stop offset="0.75"/>
<stop offset="0.82" stop-color="#172E35"/>
</radialGradient>
<clipPath id="clip0_0_512">
<rect width="128" height="128" fill="white"/>
</clipPath>
<clipPath id="clip1_0_512">
<rect width="128" height="128" fill="white"/>
</clipPath>
</defs>
</svg>
