<svg width="128" height="128" viewBox="0 0 128 128" fill="none" xmlns="http://www.w3.org/2000/svg">
<g clip-path="url(#clip0_0_113)">
<g clip-path="url(#clip1_0_113)">
<path d="M26.8925 80.886C26.8925 88.2866 20.8469 94.3323 13.4463 94.3323C6.04561 94.3323 0 88.2866 0 80.886C0 73.4853 6.04561 67.4397 13.4463 67.4397H26.8925V80.886Z" fill="#E01E5A"/>
<path d="M33.6675 80.886C33.6675 73.4853 39.7131 67.4397 47.1137 67.4397C54.5144 67.4397 60.56 73.4853 60.56 80.886V114.554C60.56 121.954 54.5144 128 47.1137 128C39.7131 128 33.6675 121.954 33.6675 114.554V80.886Z" fill="#E01E5A"/>
<path d="M47.1137 26.8925C39.7131 26.8925 33.6675 20.8469 33.6675 13.4463C33.6675 6.0456 39.7131 -3.8147e-06 47.1137 -3.8147e-06C54.5144 -3.8147e-06 60.56 6.0456 60.56 13.4463V26.8925H47.1137Z" fill="#36C5F0"/>
<path d="M47.114 33.6678C54.5147 33.6678 60.5603 39.7134 60.5603 47.114C60.5603 54.5147 54.5147 60.5603 47.114 60.5603H13.4463C6.0456 60.5603 0 54.5147 0 47.114C0 39.7134 6.0456 33.6678 13.4463 33.6678H47.114Z" fill="#36C5F0"/>
<path d="M101.107 47.114C101.107 39.7134 107.153 33.6678 114.554 33.6678C121.954 33.6678 128 39.7134 128 47.114C128 54.5147 121.954 60.5603 114.554 60.5603H101.107V47.114Z" fill="#2EB67D"/>
<path d="M94.3322 47.114C94.3322 54.5147 88.2866 60.5603 80.8859 60.5603C73.4853 60.5603 67.4397 54.5147 67.4397 47.114V13.4463C67.4397 6.0456 73.4853 -3.8147e-06 80.8859 -3.8147e-06C88.2866 -3.8147e-06 94.3322 6.0456 94.3322 13.4463V47.114Z" fill="#2EB67D"/>
<path d="M80.8859 101.107C88.2866 101.107 94.3322 107.153 94.3322 114.554C94.3322 121.954 88.2866 128 80.8859 128C73.4853 128 67.4397 121.954 67.4397 114.554V101.107H80.8859Z" fill="#ECB22E"/>
<path d="M80.8859 94.3323C73.4853 94.3323 67.4397 88.2866 67.4397 80.886C67.4397 73.4853 73.4853 67.4397 80.8859 67.4397H114.554C121.954 67.4397 128 73.4853 128 80.886C128 88.2866 121.954 94.3323 114.554 94.3323H80.8859Z" fill="#ECB22E"/>
</g>
</g>
<defs>
<clipPath id="clip0_0_113">
<rect width="128" height="128" fill="white"/>
</clipPath>
<clipPath id="clip1_0_113">
<rect width="128" height="128" fill="white"/>
</clipPath>
</defs>
</svg>
