<svg width="128" height="128" viewBox="0 0 128 128" fill="none" xmlns="http://www.w3.org/2000/svg">
<g clip-path="url(#clip0_0_794)">
<path fill-rule="evenodd" clip-rule="evenodd" d="M54.5868 38.5631C54.5868 33.0774 59.0879 30.9675 66.5429 30.9675C77.233 30.9675 90.7363 34.2027 101.426 39.9697V6.91478C89.7516 2.27303 78.2176 0.444458 66.5429 0.444458C37.989 0.444458 19 15.3544 19 40.2511C19 79.073 72.4505 72.884 72.4505 89.6225C72.4505 96.0928 66.8242 98.2027 58.9473 98.2027C47.2725 98.2027 32.3626 93.4203 20.5473 86.95V120.427C33.6286 126.053 46.8505 128.444 58.9473 128.444C88.2044 128.444 108.319 113.957 108.319 88.7785C108.178 46.862 54.5868 54.317 54.5868 38.5631Z" fill="#635BFF"/>
</g>
<defs>
<clipPath id="clip0_0_794">
<rect width="128" height="128" fill="white"/>
</clipPath>
</defs>
</svg>
