<svg width="128" height="128" viewBox="0 0 128 128" fill="none" xmlns="http://www.w3.org/2000/svg">
<g clip-path="url(#clip0_0_132)">
<path d="M74.8244 125.802C71.5544 129.92 64.9243 127.664 64.8455 122.406L63.6934 45.501H115.404C124.77 45.501 129.994 56.3191 124.17 63.6545L74.8244 125.802Z" fill="url(#paint0_linear_0_132)"/>
<path d="M74.8244 125.802C71.5544 129.92 64.9243 127.664 64.8455 122.406L63.6934 45.501H115.404C124.77 45.501 129.994 56.3191 124.17 63.6545L74.8244 125.802Z" fill="url(#paint1_linear_0_132)" fill-opacity="0.2"/>
<path d="M53.7939 2.05576C57.0639 -2.06261 63.6942 0.193957 63.773 5.45206L64.2778 82.3569H13.2142C3.84765 82.3569 -1.37622 71.5389 4.44815 64.2035L53.7939 2.05576Z" fill="#3ECF8E"/>
</g>
<defs>
<linearGradient id="paint0_linear_0_132" x1="63.6934" y1="62.5528" x2="109.652" y2="81.8278" gradientUnits="userSpaceOnUse">
<stop stop-color="#249361"/>
<stop offset="1" stop-color="#3ECF8E"/>
</linearGradient>
<linearGradient id="paint1_linear_0_132" x1="43.3176" y1="34.6548" x2="64.2773" y2="74.1101" gradientUnits="userSpaceOnUse">
<stop/>
<stop offset="1" stop-opacity="0"/>
</linearGradient>
<clipPath id="clip0_0_132">
<rect width="128" height="128" fill="white"/>
</clipPath>
</defs>
</svg>
