<svg version="1.1" id="Layer_1" xmlns:x="ns_extend;" xmlns:i="ns_ai;" xmlns:graph="ns_graphs;" xmlns="http://www.w3.org/2000/svg" xmlns:xlink="http://www.w3.org/1999/xlink" x="0px" y="0px" viewBox="0 0 143.4 181.2" style="enable-background:new 0 0 143.4 181.2;" xml:space="preserve">
 <style type="text/css">
  .st0{fill-rule:evenodd;clip-rule:evenodd;fill:url(#Oval_1_);}
	.st1{fill-rule:evenodd;clip-rule:evenodd;fill:#000000;}
	.st2{fill:#4D4D4D;}
 </style>
 <metadata>
  <sfw xmlns="ns_sfw;">
   <slices>
   </slices>
   <sliceSourceBounds bottomLeftOrigin="true" height="181.2" width="143.4" x="128.3" y="-290.6">
   </sliceSourceBounds>
  </sfw>
 </metadata>
 <g>
  <g id="Artboard">
   <linearGradient id="Oval_1_" gradientUnits="userSpaceOnUse" x1="7.4952" y1="64.1535" x2="135.8023" y2="64.1535">
    <stop offset="0" style="stop-color:#2AABEE">
    </stop>
    <stop offset="1" style="stop-color:#229ED9">
    </stop>
   </linearGradient>
   <circle id="Oval" class="st0" cx="71.6" cy="64.2" r="64.2">
   </circle>
   <path id="Path-3" class="st1" d="M36.5,63.5C55.2,55.3,67.7,50,73.9,47.4c17.8-7.4,21.5-8.7,23.9-8.7c0.5,0,1.7,0.1,2.5,0.7
			c0.6,0.5,0.8,1.2,0.9,1.7s0.2,1.6,0.1,2.5c-1,10.1-5.1,34.8-7.3,46.1c-0.9,4.8-2.7,6.4-4.4,6.6c-3.7,0.3-6.6-2.5-10.2-4.8
			c-5.6-3.7-8.8-6-14.3-9.6c-6.3-4.2-2.2-6.5,1.4-10.2c0.9-1,17.4-15.9,17.7-17.3c0-0.2,0.1-0.8-0.3-1.1c-0.4-0.3-0.9-0.2-1.3-0.1
			c-0.6,0.1-9.6,6.1-27.1,17.9c-2.6,1.8-4.9,2.6-7,2.6c-2.3,0-6.7-1.3-10-2.4c-4-1.3-7.2-2-6.9-4.2C31.9,65.9,33.5,64.7,36.5,63.5z">
   </path>
  </g>
  <path class="st2" d="M28.2,154.4c2.6,0,4.6,0.8,6,2.5c1.4,1.7,2.1,4,2.1,7v1.7H23.9c0.1,1.6,0.7,2.8,1.6,3.7s2.1,1.4,3.5,1.4
		c2,0,3.6-0.8,4.8-2.4l2.3,2.2c-0.8,1.1-1.8,2-3.1,2.6c-1.3,0.6-2.7,0.9-4.3,0.9c-2.7,0-4.9-0.9-6.6-2.6c-1.7-1.7-2.5-4-2.5-6.8
		v-0.5c0-1.9,0.4-3.6,1.1-5.1c0.7-1.5,1.8-2.7,3.1-3.5C25.1,154.8,26.6,154.4,28.2,154.4z M20.3,148.1v3.6h-8v22H7.9v-22H0v-3.6
		H20.3z M28.2,157.8c-1.2,0-2.1,0.4-2.8,1.2c-0.7,0.8-1.2,2-1.4,3.4h8.1v-0.3c-0.1-1.4-0.5-2.5-1.1-3.2
		C30.3,158.1,29.4,157.8,28.2,157.8z M43.4,173.7h-4.3v-27h4.3V173.7z M55.4,174.1c-2.7,0-4.9-0.9-6.6-2.6c-1.7-1.7-2.5-4-2.5-6.8
		v-0.5c0-1.9,0.4-3.6,1.1-5.1c0.7-1.5,1.8-2.7,3.1-3.5c1.3-0.8,2.8-1.2,4.4-1.2c2.6,0,4.6,0.8,6,2.5s2.1,4,2.1,7v1.7H50.6
		c0.1,1.6,0.7,2.8,1.6,3.7c0.9,0.9,2.1,1.4,3.5,1.4c2,0,3.6-0.8,4.8-2.4l2.3,2.2c-0.8,1.1-1.8,2-3.1,2.6
		C58.4,173.8,57,174.1,55.4,174.1z M54.9,157.8c-1.2,0-2.1,0.4-2.8,1.2c-0.7,0.8-1.2,2-1.4,3.4h8.1v-0.3c-0.1-1.4-0.5-2.5-1.1-3.2
		C57,158.1,56.1,157.8,54.9,157.8z M65.1,164.1c0-3,0.7-5.3,2.1-7.1c1.4-1.8,3.2-2.6,5.5-2.6c2.2,0,3.9,0.8,5.1,2.3l0.2-1.9h3.9
		v18.5c0,2.5-0.8,4.5-2.3,5.9c-1.6,1.4-3.7,2.2-6.3,2.2c-1.4,0-2.8-0.3-4.1-0.9s-2.3-1.3-3-2.3l2-2.6c1.3,1.6,2.9,2.3,4.9,2.3
		c1.4,0,2.5-0.4,3.4-1.2c0.8-0.8,1.2-1.9,1.2-3.4V172c-1.2,1.4-2.9,2.1-4.9,2.1c-2.2,0-4-0.9-5.5-2.7
		C65.8,169.7,65.1,167.2,65.1,164.1z M69.4,164.5c0,1.9,0.4,3.4,1.2,4.5s1.9,1.6,3.2,1.6c1.7,0,3-0.7,3.8-2.2V160
		c-0.8-1.4-2.1-2.2-3.8-2.2c-1.4,0-2.5,0.6-3.3,1.7C69.8,160.6,69.4,162.3,69.4,164.5z M95.8,158.6c-0.6-0.1-1.1-0.1-1.7-0.1
		c-2,0-3.3,0.8-4,2.3v13h-4.3v-19h4.1l0.1,2.1c1-1.7,2.5-2.5,4.3-2.5c0.6,0,1.1,0.1,1.5,0.2L95.8,158.6z M108.8,173.7
		c-0.2-0.4-0.4-1-0.5-1.8c-1.4,1.4-3,2.1-5,2.1c-1.9,0-3.5-0.5-4.7-1.6c-1.2-1.1-1.8-2.4-1.8-4c0-2,0.8-3.6,2.3-4.7
		c1.5-1.1,3.7-1.6,6.5-1.6h2.6v-1.2c0-1-0.3-1.8-0.8-2.4c-0.6-0.6-1.4-0.9-2.5-0.9c-1,0-1.8,0.2-2.4,0.7c-0.6,0.5-0.9,1.1-0.9,1.9
		h-4.3c0-1,0.3-2,1-2.9c0.7-0.9,1.6-1.6,2.8-2.1c1.2-0.5,2.5-0.8,4-0.8c2.2,0,4,0.6,5.3,1.7c1.3,1.1,2,2.7,2,4.7v8.6
		c0,1.7,0.2,3.1,0.7,4.1v0.3H108.8z M104.1,170.7c0.8,0,1.6-0.2,2.4-0.6c0.7-0.4,1.3-1,1.7-1.7v-3.6h-2.3c-1.6,0-2.8,0.3-3.6,0.8
		c-0.8,0.6-1.2,1.3-1.2,2.3c0,0.8,0.3,1.5,0.8,2C102.5,170.4,103.2,170.7,104.1,170.7L104.1,170.7z M120.4,154.7l0.1,2
		c1.3-1.6,3.2-2.3,5.5-2.3c2.5,0,4.3,1,5.2,2.9c1.4-1.9,3.3-2.9,5.8-2.9c2.1,0,3.7,0.6,4.7,1.7c1,1.2,1.6,2.9,1.6,5.1v12.5h-4.3
		v-12.4c0-1.2-0.3-2.1-0.8-2.7c-0.5-0.6-1.4-0.8-2.6-0.8c-1,0-1.8,0.3-2.4,0.8c-0.6,0.5-1,1.2-1.3,2l0,13.1h-4.3v-12.5
		c-0.1-2.2-1.2-3.4-3.4-3.4c-1.7,0-2.9,0.7-3.6,2.1v13.8h-4.3v-19H120.4z">
  </path>
 </g>
</svg>