<svg width="128" height="128" viewBox="0 0 128 128" fill="none" xmlns="http://www.w3.org/2000/svg">
<g clip-path="url(#clip0_240_7025)">
<g clip-path="url(#clip1_240_7025)">
<path fill-rule="evenodd" clip-rule="evenodd" d="M112.867 0H15.133C6.72578 0 0 6.72578 0 15.133V112.657C0 121.064 6.72578 127.79 15.133 127.79H112.657C121.064 127.79 127.79 121.064 127.79 112.657V15.3432C128 6.72578 121.274 0 112.867 0ZM55.0673 92.2693C55.0673 95.0016 52.7553 97.3136 50.023 97.3136H28.7947C26.0624 97.3136 23.7504 95.0016 23.7504 92.2693V28.7947C23.7504 26.0624 26.0624 23.7504 28.7947 23.7504H50.2332C52.9655 23.7504 55.2775 26.0624 55.2775 28.7947V92.2693H55.0673ZM104.46 63.0542C104.46 65.7865 102.358 68.0985 99.4154 68.3087C99.4154 68.3087 99.4154 68.3087 99.2053 68.3087H77.977C75.2447 68.3087 72.9327 65.9967 72.9327 63.2644V28.7947C72.9327 26.0624 75.2447 23.7504 77.977 23.7504H99.4154C102.148 23.7504 104.46 26.0624 104.46 28.7947V63.0542Z" fill="url(#paint0_linear_240_7025)"/>
</g>
</g>
<defs>
<linearGradient id="paint0_linear_240_7025" x1="64.042" y1="128.084" x2="64.042" y2="0" gradientUnits="userSpaceOnUse">
<stop stop-color="#0052CC"/>
<stop offset="1" stop-color="#2684FF"/>
</linearGradient>
<clipPath id="clip0_240_7025">
<rect width="128" height="128" fill="white"/>
</clipPath>
<clipPath id="clip1_240_7025">
<rect width="128" height="128" fill="white"/>
</clipPath>
</defs>
</svg>
