<svg version="1.1" id="Layer_1" xmlns:x="ns_extend;" xmlns:i="ns_ai;" xmlns:graph="ns_graphs;" xmlns="http://www.w3.org/2000/svg" xmlns:xlink="http://www.w3.org/1999/xlink" x="0px" y="0px" viewBox="0 0 673.62 435" style="enable-background:new 0 0 673.62 435;" xml:space="preserve">
 <style type="text/css">
  .st0{fill:#25D366;}
	.st1{fill-rule:evenodd;clip-rule:evenodd;fill:#25D366;}
 </style>
 <metadata>
  <sfw xmlns="ns_sfw;">
   <slices>
   </slices>
   <sliceSourceBounds bottomLeftOrigin="true" height="435" width="673.62" x="517.89" y="0.57">
   </sliceSourceBounds>
  </sfw>
 </metadata>
 <g>
  <path class="st0" d="M96.01,376.88h-0.27L78.17,306.1H57.02l-17.86,70.03h-0.29l-16.26-69.99H0l27.21,102.82h22.9l17.13-69.99h0.27
		l17.42,69.99h22.46l27.65-102.82h-22.17L96.01,376.88z M203.99,340.74c-2.18-2.77-5.05-4.93-8.33-6.25
		c-4.32-1.57-8.9-2.28-13.49-2.08c-4.11,0.06-8.15,1.07-11.8,2.96c-4.18,2.08-7.63,5.37-9.93,9.43h-0.44v-38.76h-20.36v102.82h20.44
		v-38.97c0-7.58,1.25-13.01,3.75-16.34c2.5-3.33,6.52-4.95,12.1-4.95c4.89,0,8.33,1.5,10.22,4.54c1.89,3.04,2.87,7.6,2.87,13.74
		v42.05h20.44v-45.8c0.03-4.23-0.38-8.45-1.23-12.59C207.58,346.98,206.13,343.64,203.99,340.74L203.99,340.74z M288.2,392.24
		v-38.68c0.2-3.85-0.86-7.67-3.02-10.87c-2.01-2.75-4.68-4.95-7.77-6.41c-3.32-1.59-6.87-2.63-10.51-3.1
		c-3.77-0.52-7.56-0.78-11.37-0.79c-4.13,0-8.25,0.41-12.3,1.23c-3.89,0.76-7.62,2.16-11.03,4.16c-3.23,1.89-5.99,4.5-8.06,7.62
		c-2.24,3.6-3.48,7.73-3.6,11.97h20.44c0.02-1.64,0.39-3.27,1.08-4.76c0.7-1.49,1.7-2.81,2.95-3.88c2.8-1.87,6.13-2.79,9.49-2.6
		c1.71,0,3.42,0.11,5.12,0.35c1.47,0.21,2.89,0.7,4.16,1.46c1.22,0.72,2.22,1.77,2.89,3.02c0.79,1.63,1.16,3.43,1.08,5.25
		c0.1,0.9-0.02,1.8-0.34,2.64s-0.85,1.59-1.53,2.19c-1.61,1.24-3.48,2.1-5.47,2.52c-2.61,0.63-5.26,1.07-7.93,1.29
		c-2.98,0.29-6,0.69-9.06,1.17c-3.1,0.43-6.18,1.03-9.22,1.79c-2.88,0.75-5.61,1.99-8.08,3.66c-2.4,1.77-4.34,4.08-5.66,6.75
		c-1.6,3.23-2.36,6.81-2.23,10.41c-0.08,3.41,0.58,6.8,1.94,9.93c1.23,2.7,3.08,5.06,5.39,6.91c2.4,1.87,5.14,3.24,8.08,4.04
		c3.24,0.88,6.58,1.31,9.93,1.29c4.59-0.01,9.15-0.72,13.53-2.08c4.38-1.32,8.35-3.75,11.51-7.06c0.1,1.24,0.27,2.47,0.5,3.68
		c0.25,1.19,0.56,2.36,0.94,3.52h20.82c-1.17-2.13-1.88-4.49-2.08-6.91c-0.4-3.2-0.6-6.42-0.6-9.64V392.24z M267.78,379.98
		c-0.03,1.55-0.15,3.09-0.37,4.62c-0.26,2-0.92,3.94-1.94,5.68c-1.18,2.01-2.87,3.67-4.89,4.83c-2.88,1.53-6.11,2.25-9.37,2.08
		c-1.59,0-3.18-0.14-4.75-0.44c-1.43-0.25-2.8-0.76-4.04-1.52c-1.15-0.72-2.09-1.73-2.73-2.94c-0.71-1.43-1.05-3.02-1-4.62
		c-0.06-1.64,0.28-3.27,1-4.75c0.65-1.22,1.56-2.28,2.66-3.1c1.18-0.85,2.5-1.51,3.89-1.94c1.48-0.49,3-0.87,4.54-1.14
		c1.62-0.29,3.25-0.54,4.87-0.73c1.62-0.19,3.21-0.44,4.68-0.73c1.41-0.26,2.8-0.62,4.16-1.08c1.19-0.37,2.3-0.98,3.25-1.79
		L267.78,379.98z M326.36,312.03h-20.44v22.46h-12.39v13.68h12.39v43.93c-0.14,3.13,0.51,6.24,1.87,9.06
		c1.17,2.22,2.93,4.08,5.1,5.35c2.32,1.3,4.86,2.15,7.49,2.52c2.98,0.43,5.98,0.65,8.99,0.65c2.08,0,4.16,0,6.25-0.15
		c1.93-0.08,3.84-0.28,5.75-0.58v-15.84c-1,0.2-2,0.35-3.02,0.44c-1.06,0-2.08,0.15-3.31,0.15c-3.46,0-5.77-0.58-6.91-1.73
		c-1.15-1.14-1.73-3.46-1.73-6.91v-36.95h14.97v-13.59H326.4L326.36,312.03z M410.86,376.17c-1.32-2.33-3.14-4.34-5.33-5.89
		c-2.32-1.64-4.86-2.94-7.56-3.83c-2.86-0.97-5.76-1.78-8.7-2.44c-2.87-0.67-5.7-1.29-8.49-1.87c-2.5-0.51-4.98-1.15-7.41-1.94
		c-1.92-0.59-3.71-1.56-5.27-2.83c-0.66-0.53-1.2-1.21-1.56-1.99c-0.36-0.77-0.54-1.62-0.52-2.47c-0.07-1.32,0.33-2.62,1.14-3.66
		c0.76-0.9,1.72-1.62,2.81-2.08c1.17-0.5,2.4-0.81,3.66-0.94c1.35-0.12,2.6-0.21,3.75-0.21c3.29-0.07,6.55,0.65,9.51,2.08
		c1.39,0.81,2.54,1.98,3.32,3.39c0.78,1.41,1.18,3,1.13,4.61h19.42c-0.21-4.05-1.42-7.98-3.52-11.45c-1.9-2.94-4.43-5.42-7.41-7.27
		c-3.13-1.89-6.57-3.2-10.16-3.89c-3.86-0.77-7.79-1.16-11.72-1.15c-3.96-0.01-7.91,0.35-11.8,1.08c-3.66,0.64-7.18,1.91-10.41,3.75
		c-3.05,1.75-5.61,4.25-7.43,7.27c-2,3.6-2.98,7.69-2.81,11.8c-0.09,2.91,0.63,5.8,2.08,8.33c1.32,2.25,3.14,4.17,5.31,5.62
		c2.34,1.55,4.88,2.76,7.56,3.6c2.83,0.92,5.75,1.71,8.7,2.37c5.79,1.12,11.5,2.66,17.07,4.6c4.08,1.54,6.12,3.84,6.12,6.91
		c0.07,1.61-0.38,3.2-1.29,4.54c-0.85,1.19-1.96,2.18-3.25,2.87c-1.34,0.75-2.8,1.29-4.31,1.58c-1.49,0.34-3.01,0.51-4.54,0.52
		c-1.97,0-3.92-0.24-5.83-0.73c-1.78-0.44-3.46-1.2-4.98-2.23c-1.45-1.02-2.65-2.35-3.52-3.89c-0.95-1.74-1.43-3.7-1.37-5.68h-19.34
		c-0.05,4.09,0.97,8.13,2.95,11.71c1.98,3.58,4.85,6.59,8.34,8.73c3.39,2.08,7.13,3.55,11.03,4.33c4.16,0.86,8.41,1.29,12.66,1.29
		c4.19,0,8.38-0.41,12.49-1.23c3.85-0.7,7.54-2.11,10.87-4.16c3.42-2.13,6.22-5.13,8.09-8.7c1.87-3.57,2.76-7.57,2.57-11.6
		c0.11-3.07-0.6-6.11-2.06-8.81V376.17z M451.45,305.97l-38.87,102.82h22.75l8.06-22.9h38.55l7.77,22.9h23.46l-38.43-102.82H451.45z
		 M449.37,369.05l13.39-37.74h0.29L476,369.05H449.37z M583.75,344.48c-2.78-3.66-6.33-6.66-10.41-8.78
		c-4.73-2.32-9.94-3.45-15.2-3.29c-4.38-0.05-8.71,0.88-12.68,2.73c-3.95,1.94-7.25,4.99-9.49,8.78h-0.29v-9.43h-19.44V435h20.46
		v-35.35h0.27c2.39,3.58,5.7,6.46,9.58,8.33c3.98,1.9,8.33,2.86,12.74,2.81c4.94,0.08,9.84-1.02,14.26-3.23
		c4-2.04,7.49-4.94,10.22-8.49c2.79-3.66,4.87-7.81,6.12-12.24c1.37-4.68,2.07-9.53,2.08-14.41c-0.01-5.14-0.71-10.25-2.08-15.2
		C588.68,352.62,586.6,348.3,583.75,344.48L583.75,344.48z M570.68,380.62c-0.5,2.68-1.51,5.24-2.96,7.56
		c-1.46,2.34-3.52,4.24-5.97,5.52c-2.44,1.28-5.18,1.89-7.94,1.76c-2.91,0.06-5.79-0.66-8.33-2.08c-2.24-1.28-4.14-3.09-5.54-5.27
		c-1.46-2.31-2.48-4.88-3.02-7.56c-0.58-2.83-0.87-5.71-0.85-8.6c-0.02-3,0.27-5.99,0.85-8.93c0.51-2.71,1.51-5.3,2.96-7.64
		c1.37-2.21,3.25-4.06,5.47-5.39c2.53-1.45,5.41-2.17,8.33-2.08c2.92-0.11,5.8,0.62,8.33,2.08c2.24,1.37,4.14,3.24,5.54,5.45
		c1.48,2.36,2.53,4.97,3.1,7.7c0.58,2.9,0.85,5.85,0.81,8.81C571.48,374.87,571.22,377.77,570.68,380.62L570.68,380.62z
		 M671.39,357.22c-1.24-4.61-3.36-8.94-6.25-12.74c-2.78-3.66-6.33-6.66-10.41-8.78c-4.7-2.32-9.89-3.45-15.13-3.31
		c-4.37-0.05-8.7,0.88-12.66,2.73c-3.95,1.94-7.25,4.99-9.49,8.78h-0.19v-9.41h-19.44V435h20.44v-35.35h0.29
		c2.39,3.58,5.69,6.46,9.57,8.33c3.98,1.89,8.34,2.85,12.74,2.81c4.96,0.11,9.87-0.97,14.32-3.16c4-2.04,7.49-4.94,10.22-8.49
		c2.79-3.66,4.87-7.81,6.12-12.24c1.38-4.68,2.08-9.53,2.08-14.41C673.58,367.32,672.83,362.18,671.39,357.22L671.39,357.22z
		 M652.1,380.62c-0.49,2.68-1.49,5.25-2.94,7.56c-2.44,3.43-6.04,5.85-10.13,6.82c-4.1,0.97-8.4,0.42-12.12-1.56
		c-2.24-1.28-4.14-3.09-5.53-5.27c-1.47-2.31-2.5-4.87-3.04-7.56c-0.62-2.88-0.93-5.82-0.92-8.76c-0.01-3,0.28-5.99,0.85-8.93
		c0.51-2.71,1.51-5.3,2.96-7.64c1.37-2.2,3.25-4.05,5.47-5.39c2.53-1.45,5.42-2.17,8.33-2.08c2.92-0.1,5.81,0.62,8.33,2.08
		c2.24,1.37,4.13,3.24,5.54,5.45c1.48,2.36,2.53,4.97,3.1,7.7c0.63,2.89,0.94,5.85,0.94,8.81c0.03,2.94-0.24,5.88-0.79,8.76H652.1z">
  </path>
  <path class="st1" d="M416.59,32.48c-19.31-19.09-44.88-30.55-71.98-32.26c-27.1-1.71-53.9,6.46-75.45,22.98
		s-36.39,40.28-41.79,66.9c-5.39,26.61-0.97,54.28,12.46,77.89l-15.93,58.19l59.54-15.61c16.46,8.98,34.92,13.68,53.67,13.68l0,0
		c22.2-0.04,43.89-6.65,62.33-19c18.45-12.35,32.82-29.88,41.32-50.39c8.5-20.51,10.73-43.07,6.42-64.85
		c-4.31-21.78-14.97-41.79-30.63-57.51H416.59z M337.14,205.27c-16.72,0-33.12-4.49-47.51-13.01l-3.41-2.08l-35.39,9.26l9.45-34.37
		l-2.21-3.52c-11-17.53-15.87-38.21-13.83-58.81c2.03-20.59,10.86-39.93,25.08-54.96c14.22-15.04,33.03-24.92,53.48-28.1
		c20.45-3.18,41.37,0.53,59.49,10.54c18.11,10.01,32.39,25.75,40.58,44.76c8.19,19,9.83,40.19,4.67,60.23
		c-5.16,20.04-16.84,37.8-33.19,50.48c-16.35,12.68-36.46,19.57-57.15,19.58H337.14z M388.25,135.36
		c-2.79-1.42-16.65-8.2-19.17-9.14c-2.52-0.94-4.43-1.39-6.25,1.42c-1.81,2.81-7.24,9.12-8.89,10.99c-1.64,1.87-3.27,2.08-6.08,0.71
		c-8.26-3.27-15.88-7.95-22.55-13.82c-6.13-5.68-11.39-12.23-15.61-19.44c-1.62-2.81-0.17-4.33,1.23-5.72
		c1.39-1.39,2.81-3.27,4.16-4.91c1.15-1.42,2.09-3,2.79-4.68c0.38-0.77,0.55-1.63,0.51-2.49c-0.04-0.86-0.29-1.69-0.74-2.43
		c-0.69-1.42-6.25-15.22-8.64-20.82c-2.39-5.6-4.6-4.73-6.24-4.81c-1.64-0.08-3.5,0-5.37,0c-1.42,0.04-2.82,0.37-4.11,0.98
		c-1.29,0.61-2.43,1.47-3.37,2.54c-3.16,2.97-5.68,6.56-7.39,10.55c-1.71,3.99-2.57,8.29-2.54,12.62
		c0,13.82,10.05,27.06,11.45,29.02c1.39,1.96,19.8,30.23,47.88,42.39c5.22,2.26,10.56,4.23,15.99,5.91
		c5.73,1.74,11.78,2.11,17.67,1.1c5.39-0.81,16.65-6.79,18.94-13.34c2.29-6.56,2.33-12.18,1.64-13.34
		C392.89,137.46,391.15,136.76,388.25,135.36z">
  </path>
 </g>
</svg>