<svg width="227" height="50" viewBox="0 0 227 50" fill="none" xmlns="http://www.w3.org/2000/svg">
<path fill-rule="evenodd" clip-rule="evenodd" d="M0.745254 17.7702C0.283874 18.0385 0 18.5319 0 19.0656V30.8735C0 31.4072 0.283874 31.9006 0.745254 32.1689L16.1074 41.1003V41.0535L31.4695 32.122C31.9309 31.8538 32.2147 31.3604 32.2147 30.8267V19.5057C32.2147 18.9279 31.5885 18.5676 31.089 18.858L16.8526 27.135C16.3912 27.4032 16.1074 27.8966 16.1074 28.4303V30.6118L1.24833 21.9728L16.1074 13.3338V10.1409C16.1074 9.5632 15.4811 9.20288 14.9817 9.49326L0.745254 17.7702ZM20.8824 28.5837C20.7671 28.6508 20.6961 28.7741 20.6961 28.9076V29.8649C20.6961 30.0093 20.8527 30.0994 20.9775 30.0268L28.5635 25.6164C28.6788 25.5493 28.7498 25.4259 28.7498 25.2925V24.3352C28.7498 24.1908 28.5932 24.1007 28.4684 24.1733L20.8824 28.5837Z" fill="#335BF1"/>
<path d="M10.7382 25.3087C10.7382 24.7751 11.0221 24.2816 11.4835 24.0134L25.7199 15.7364C26.2193 15.446 26.8456 15.8064 26.8456 16.3841V19.577L10.7382 28.9418V25.3087Z" fill="#335BF1"/>
<path d="M5.36912 22.1872C5.36912 21.6535 5.65299 21.1601 6.11437 20.8918L20.3508 12.6148C20.8502 12.3245 21.4765 12.6848 21.4765 13.2625V16.4554L5.36912 25.8202V22.1872Z" fill="#335BF1"/>
<path d="M48.0382 36.1739C46.7275 36.1739 45.4697 35.9622 44.2647 35.539C43.0809 35.0945 42.0345 34.4385 41.1255 33.5708C40.2376 32.6819 39.5294 31.5814 39.001 30.2693C38.4725 28.936 38.2082 27.3911 38.2082 25.6346C38.2082 23.8992 38.483 22.3648 39.0327 21.0315C39.5823 19.6771 40.3116 18.5448 41.2206 17.6348C42.1508 16.7036 43.2078 15.9946 44.3916 15.5079C45.5965 15.0211 46.8544 14.7778 48.165 14.7778C49.5391 14.7778 50.7652 15.0529 51.8433 15.6031C52.9215 16.1322 53.8305 16.7671 54.5704 17.5078L51.7165 20.9998C51.2091 20.5554 50.6807 20.1956 50.131 19.9205C49.6025 19.6242 48.9895 19.476 48.2919 19.476C47.6788 19.476 47.0975 19.6136 46.5478 19.8887C46.0193 20.1638 45.5437 20.5554 45.1209 21.0633C44.7192 21.5712 44.3916 22.1955 44.1379 22.9362C43.9054 23.677 43.7891 24.5129 43.7891 25.4441C43.7891 27.3911 44.1908 28.8831 44.9941 29.9201C45.8185 30.9571 46.8966 31.4756 48.2284 31.4756C49.0318 31.4756 49.7399 31.3063 50.353 30.9677C50.9872 30.6079 51.5262 30.1847 51.9702 29.6979L54.824 33.1264C53.9362 34.1422 52.9109 34.9041 51.7482 35.412C50.6067 35.9199 49.37 36.1739 48.0382 36.1739Z" fill="#335BF1"/>
<path d="M61.4811 36.1739C60.5509 36.1739 59.7688 36.0363 59.1346 35.7612C58.5215 35.4649 58.0247 35.0522 57.6442 34.5231C57.2637 33.9941 56.9889 33.3697 56.8198 32.6502C56.6718 31.9095 56.5978 31.0947 56.5978 30.2058V13.6984H62.0518V30.3963C62.0518 30.9465 62.147 31.3169 62.3372 31.5074C62.5486 31.6978 62.7495 31.7931 62.9397 31.7931C63.0454 31.7931 63.13 31.7931 63.1934 31.7931C63.2779 31.7931 63.3836 31.7719 63.5105 31.7296L64.1447 35.7294C63.8487 35.8564 63.4788 35.9622 63.0348 36.0469C62.612 36.1315 62.0941 36.1739 61.4811 36.1739Z" fill="#335BF1"/>
<path d="M72.765 36.1739C71.6023 36.1739 70.5242 35.994 69.5306 35.6342C68.537 35.2533 67.6703 34.7136 66.9304 34.0152C66.2117 33.2957 65.6409 32.4174 65.2181 31.3804C64.7953 30.3434 64.5839 29.1688 64.5839 27.8567C64.5839 26.5657 64.7953 25.4123 65.2181 24.3965C65.662 23.3595 66.2328 22.4812 66.9304 21.7617C67.6492 21.0421 68.463 20.4919 69.3721 20.1109C70.2811 19.73 71.2218 19.5395 72.1942 19.5395C73.3569 19.5395 74.3716 19.7406 75.2383 20.1427C76.1051 20.5448 76.8238 21.095 77.3946 21.7934C77.9654 22.4918 78.3881 23.3066 78.663 24.2378C78.9589 25.169 79.1069 26.1636 79.1069 27.2218C79.1069 27.7086 79.0752 28.1636 79.0118 28.5868C78.9695 29.0101 78.9272 29.317 78.8849 29.5074H69.8477C70.1014 30.4598 70.5559 31.1264 71.2112 31.5074C71.8665 31.8671 72.6381 32.047 73.526 32.047C74.0756 32.047 74.6041 31.973 75.1115 31.8248C75.64 31.6555 76.1896 31.4121 76.7604 31.0947L78.5361 34.3327C77.6694 34.9464 76.7075 35.412 75.6506 35.7294C74.6147 36.0257 73.6529 36.1739 72.765 36.1739ZM69.7843 25.952H74.4773C74.4773 25.3383 74.3188 24.8092 74.0017 24.3648C73.7057 23.8992 73.1455 23.6664 72.3211 23.6664C71.708 23.6664 71.1689 23.8463 70.7039 24.206C70.2599 24.5658 69.9534 25.1478 69.7843 25.952Z" fill="#335BF1"/>
<path d="M85.9601 35.7929C83.4776 35.7929 81.4651 33.7804 81.4651 31.2979V19.9205H84.6004C85.348 19.9205 85.9812 20.4715 86.0844 21.212L86.2849 22.6505H86.4118C87.0037 21.5712 87.7013 20.7882 88.5046 20.3014C89.329 19.7935 90.1323 19.5395 90.9145 19.5395C91.4007 19.5395 91.7918 19.5713 92.0878 19.6348C92.3837 19.6771 92.648 19.7512 92.8805 19.857L91.9926 24.5552C91.6967 24.4917 91.4113 24.4388 91.1365 24.3965C90.8828 24.333 90.5763 24.3013 90.2169 24.3013C89.6461 24.3013 89.0436 24.5023 88.4095 24.9044C87.7964 25.2854 87.2996 25.9732 86.9191 26.9678V35.7929H85.9601Z" fill="#335BF1"/>
<path d="M98.5796 35.7929C96.097 35.7929 94.0845 33.7804 94.0845 31.2979V13.6984H99.4117V25.4441H99.5385L102.565 21.6242C103.417 20.548 104.715 19.9205 106.088 19.9205H109.812L104.168 26.5234L110.13 35.7929H106.864C105.238 35.7929 103.739 34.9153 102.944 33.4977L101.061 30.1423L99.4117 31.9835V35.7929H98.5796Z" fill="#335BF1"/>
<path fill-rule="evenodd" clip-rule="evenodd" d="M0.745254 17.7702C0.283874 18.0385 0 18.5319 0 19.0656V30.8735C0 31.4072 0.283874 31.9006 0.745254 32.1689L16.1074 41.1003V41.0535L31.4695 32.122C31.9309 31.8538 32.2147 31.3604 32.2147 30.8267V19.5057C32.2147 18.9279 31.5885 18.5676 31.089 18.858L16.8526 27.135C16.3912 27.4032 16.1074 27.8966 16.1074 28.4303V30.6118L1.24833 21.9728L16.1074 13.3338V10.1409C16.1074 9.5632 15.4811 9.20288 14.9817 9.49326L0.745254 17.7702ZM20.8824 28.5837C20.7671 28.6508 20.6961 28.7741 20.6961 28.9076V29.8649C20.6961 30.0093 20.8527 30.0994 20.9775 30.0268L28.5635 25.6164C28.6788 25.5493 28.7498 25.4259 28.7498 25.2925V24.3352C28.7498 24.1908 28.5932 24.1007 28.4684 24.1733L20.8824 28.5837Z" fill="#335BF1"/>
<path d="M10.7382 25.3087C10.7382 24.7751 11.0221 24.2816 11.4835 24.0134L25.7199 15.7364C26.2193 15.446 26.8456 15.8064 26.8456 16.3841V19.577L10.7382 28.9418V25.3087Z" fill="#335BF1"/>
<path d="M5.36912 22.1872C5.36912 21.6535 5.65299 21.1601 6.11437 20.8918L20.3508 12.6148C20.8502 12.3245 21.4765 12.6848 21.4765 13.2625V16.4554L5.36912 25.8202V22.1872Z" fill="#335BF1"/>
<path d="M48.0382 36.1739C46.7275 36.1739 45.4697 35.9622 44.2647 35.539C43.0809 35.0945 42.0345 34.4385 41.1255 33.5708C40.2376 32.6819 39.5294 31.5814 39.001 30.2693C38.4725 28.936 38.2082 27.3911 38.2082 25.6346C38.2082 23.8992 38.483 22.3648 39.0327 21.0315C39.5823 19.6771 40.3116 18.5448 41.2206 17.6348C42.1508 16.7036 43.2078 15.9946 44.3916 15.5079C45.5965 15.0211 46.8544 14.7778 48.165 14.7778C49.5391 14.7778 50.7652 15.0529 51.8433 15.6031C52.9215 16.1322 53.8305 16.7671 54.5704 17.5078L51.7165 20.9998C51.2091 20.5554 50.6807 20.1956 50.131 19.9205C49.6025 19.6242 48.9895 19.476 48.2919 19.476C47.6788 19.476 47.0975 19.6136 46.5478 19.8887C46.0193 20.1638 45.5437 20.5554 45.1209 21.0633C44.7192 21.5712 44.3916 22.1955 44.1379 22.9362C43.9054 23.677 43.7891 24.5129 43.7891 25.4441C43.7891 27.3911 44.1908 28.8831 44.9941 29.9201C45.8185 30.9571 46.8966 31.4756 48.2284 31.4756C49.0318 31.4756 49.7399 31.3063 50.353 30.9677C50.9872 30.6079 51.5262 30.1847 51.9702 29.6979L54.824 33.1264C53.9362 34.1422 52.9109 34.9041 51.7482 35.412C50.6067 35.9199 49.37 36.1739 48.0382 36.1739Z" fill="#335BF1"/>
<path d="M61.4811 36.1739C60.5509 36.1739 59.7688 36.0363 59.1346 35.7612C58.5215 35.4649 58.0247 35.0522 57.6442 34.5231C57.2637 33.9941 56.9889 33.3697 56.8198 32.6502C56.6718 31.9095 56.5978 31.0947 56.5978 30.2058V13.6984H62.0518V30.3963C62.0518 30.9465 62.147 31.3169 62.3372 31.5074C62.5486 31.6978 62.7495 31.7931 62.9397 31.7931C63.0454 31.7931 63.13 31.7931 63.1934 31.7931C63.2779 31.7931 63.3836 31.7719 63.5105 31.7296L64.1447 35.7294C63.8487 35.8564 63.4788 35.9622 63.0348 36.0469C62.612 36.1315 62.0941 36.1739 61.4811 36.1739Z" fill="#335BF1"/>
<path d="M72.765 36.1739C71.6023 36.1739 70.5242 35.994 69.5306 35.6342C68.537 35.2533 67.6703 34.7136 66.9304 34.0152C66.2117 33.2957 65.6409 32.4174 65.2181 31.3804C64.7953 30.3434 64.5839 29.1688 64.5839 27.8567C64.5839 26.5657 64.7953 25.4123 65.2181 24.3965C65.662 23.3595 66.2328 22.4812 66.9304 21.7617C67.6492 21.0421 68.463 20.4919 69.3721 20.1109C70.2811 19.73 71.2218 19.5395 72.1942 19.5395C73.3569 19.5395 74.3716 19.7406 75.2383 20.1427C76.1051 20.5448 76.8238 21.095 77.3946 21.7934C77.9654 22.4918 78.3881 23.3066 78.663 24.2378C78.9589 25.169 79.1069 26.1636 79.1069 27.2218C79.1069 27.7086 79.0752 28.1636 79.0118 28.5868C78.9695 29.0101 78.9272 29.317 78.8849 29.5074H69.8477C70.1014 30.4598 70.5559 31.1264 71.2112 31.5074C71.8665 31.8671 72.6381 32.047 73.526 32.047C74.0756 32.047 74.6041 31.973 75.1115 31.8248C75.64 31.6555 76.1896 31.4121 76.7604 31.0947L78.5361 34.3327C77.6694 34.9464 76.7075 35.412 75.6506 35.7294C74.6147 36.0257 73.6529 36.1739 72.765 36.1739ZM69.7843 25.952H74.4773C74.4773 25.3383 74.3188 24.8092 74.0017 24.3648C73.7057 23.8992 73.1455 23.6664 72.3211 23.6664C71.708 23.6664 71.1689 23.8463 70.7039 24.206C70.2599 24.5658 69.9534 25.1478 69.7843 25.952Z" fill="#335BF1"/>
<path d="M85.9601 35.7929C83.4776 35.7929 81.4651 33.7804 81.4651 31.2979V19.9205H84.6004C85.348 19.9205 85.9812 20.4715 86.0844 21.212L86.2849 22.6505H86.4118C87.0037 21.5712 87.7013 20.7882 88.5046 20.3014C89.329 19.7935 90.1323 19.5395 90.9145 19.5395C91.4007 19.5395 91.7918 19.5713 92.0878 19.6348C92.3837 19.6771 92.648 19.7512 92.8805 19.857L91.9926 24.5552C91.6967 24.4917 91.4113 24.4388 91.1365 24.3965C90.8828 24.333 90.5763 24.3013 90.2169 24.3013C89.6461 24.3013 89.0436 24.5023 88.4095 24.9044C87.7964 25.2854 87.2996 25.9732 86.9191 26.9678V35.7929H85.9601Z" fill="#335BF1"/>
<path d="M98.5796 35.7929C96.097 35.7929 94.0845 33.7804 94.0845 31.2979V13.6984H99.4117V25.4441H99.5385L102.565 21.6242C103.417 20.548 104.715 19.9205 106.088 19.9205H109.812L104.168 26.5234L110.13 35.7929H106.864C105.238 35.7929 103.739 34.9153 102.944 33.4977L101.061 30.1423L99.4117 31.9835V35.7929H98.5796Z" fill="#335BF1"/>
<path d="M162.749 13.0405H178.572V14.2831H164.2V23.634H177.715V24.8765H164.2V35.143H178.737V36.3855H162.749V13.0405ZM179.989 13.0405H181.671L189.121 23.3069L196.735 13.0405L207.093 0L190.077 24.386L198.845 36.3855H197.098L189.121 25.465L181.111 36.3855H179.396L188.231 24.386L179.99 13.0405H179.989ZM199.472 14.2831V13.0405H217.503V14.2831H209.196V36.385H207.745V14.2831H199.472ZM142.954 13.0405H144.767L169.768 50L159.436 36.3855L144.47 14.8061L144.404 36.3855H142.954V13.0405ZM217.357 34.7678C217.06 34.7678 216.838 34.541 216.838 34.2481C216.838 33.9547 217.06 33.7279 217.357 33.7279C217.657 33.7279 217.875 33.9547 217.875 34.2481C217.875 34.541 217.657 34.7678 217.357 34.7678H217.357ZM218.782 33.3998H219.559C219.569 33.8153 219.877 34.0941 220.328 34.0941C220.832 34.0941 221.118 33.7946 221.118 33.2323V29.6732H221.908V33.2357C221.908 34.2481 221.316 34.8311 220.335 34.8311C219.414 34.8311 218.783 34.2655 218.783 33.3998H218.782ZM222.941 33.355H223.725C223.792 33.8326 224.264 34.1361 224.945 34.1361C225.58 34.1361 226.046 33.8114 226.046 33.3651C226.046 32.9815 225.75 32.7508 225.076 32.594L224.419 32.4372C223.499 32.2244 223.079 31.7843 223.079 31.0446C223.079 30.1475 223.82 29.5506 224.931 29.5506C225.965 29.5506 226.72 30.1475 226.765 30.9953H225.996C225.922 30.5316 225.513 30.2416 224.92 30.2416C224.296 30.2416 223.88 30.5384 223.88 30.9919C223.88 31.3514 224.148 31.5575 224.811 31.7109L225.372 31.847C226.416 32.0878 226.847 32.5066 226.847 33.2637C226.847 34.2269 226.091 34.8311 224.885 34.8311C223.757 34.8311 222.998 34.2549 222.941 33.3544V33.355Z" fill="black"/>
<path d="M122.479 29.1904L126.506 25.1636M126.506 25.1636L130.533 21.1367M126.506 25.1636L122.479 21.1367M126.506 25.1636L130.533 29.1904" stroke="#111827" stroke-width="2" stroke-linecap="square" stroke-linejoin="round"/>
</svg>
