<svg width="1920" height="1080" viewBox="0 0 1920 1080" fill="none" xmlns="http://www.w3.org/2000/svg">
<g clip-path="url(#clip0_53_5734)">
<rect width="1920" height="1258.83" transform="translate(0 -89.4141)" fill="black"/>
<path fill-rule="evenodd" clip-rule="evenodd" d="M1040.99 531.7L879.011 543.791C871.081 544.354 864.275 538.055 864.275 530.125V507.516V505.941V483.332C864.275 475.346 871.081 469.047 879.011 469.665L1040.99 481.757C1048.92 482.376 1055.72 476.077 1055.72 468.091V440.982C1055.72 435.64 1052.63 430.747 1047.73 428.553L978.445 396.552C969.334 392.39 958.986 399.026 958.986 408.981V504.254V509.091V604.363C958.986 614.374 969.334 621.011 978.445 616.793L1047.68 584.848C1052.51 582.598 1055.66 577.761 1055.66 572.418V545.31C1055.72 537.38 1048.92 531.081 1040.99 531.7Z" stroke="white" stroke-width="5.77444" stroke-miterlimit="10" stroke-linecap="round" stroke-linejoin="round"/>
<path d="M1055.71 456.787L926.188 430.297C917.695 428.554 909.709 435.078 909.709 443.739V505.098V508.36V569.719C909.709 578.38 917.695 584.904 926.188 583.161L1055.71 556.671" stroke="white" stroke-width="5.77444" stroke-miterlimit="10" stroke-linecap="round" stroke-linejoin="round"/>
<path d="M961.753 437.83L-10.6699 224.086" stroke="white" stroke-width="1.44361" stroke-dasharray="1.44 5.77"/>
<path d="M932.874 584.176L-151.234 795.986" stroke="white" stroke-width="1.44361" stroke-dasharray="1.44 5.77"/>
<path d="M959.83 430.128V-109.037" stroke="white" stroke-width="1.44361" stroke-dasharray="1.44 5.77"/>
<path d="M959.83 1273.54V583.443" stroke="white" stroke-width="1.44361" stroke-dasharray="1.44 5.77"/>
<path d="M975.537 619.771L-27.8457 1086.67" stroke="white" stroke-width="1.44361" stroke-dasharray="1.44 5.77"/>
<path d="M976.333 395.582L-19.6797 -56.668" stroke="white" stroke-width="1.44361" stroke-dasharray="1.44 5.77"/>
</g>
<defs>
<clipPath id="clip0_53_5734">
<rect width="1920" height="1258.83" fill="white" transform="translate(0 -89.4141)"/>
</clipPath>
</defs>
</svg>
